<?xml version="1.0" encoding="UTF-8"?>
<!DOCTYPE svg PUBLIC "-//W3C//DTD SVG 1.1//EN" "http://www.w3.org/Graphics/SVG/1.1/DTD/svg11.dtd">
<!-- Creator: CorelDRAW X8 -->
<svg xmlns="http://www.w3.org/2000/svg" xml:space="preserve" width="193.04mm" height="191.939mm" version="1.1" style="shape-rendering:geometricPrecision; text-rendering:geometricPrecision; image-rendering:optimizeQuality; fill-rule:evenodd; clip-rule:evenodd"
viewBox="0 0 19304 19194"
 xmlns:xlink="http://www.w3.org/1999/xlink">
 <defs>
  <style type="text/css">
   <![CDATA[
    .fil1 {fill:#8F0A51}
    .fil0 {fill:#FF005E}
   ]]>
  </style>
 </defs>
 <g id="Capa_x0020_1">
  <metadata id="CorelCorpID_0Corel-Layer"/>
  <path class="fil0" d="M7330 1062l-418 137c73,264 302,704 309,959 15,527 -410,586 -990,954 -678,431 -696,595 -1338,36 -134,179 -133,190 -315,309 136,166 498,493 155,955 -101,135 -178,216 -294,358 -903,1113 -692,1892 -1600,1798 -5,248 -45,268 -125,432 633,261 327,830 262,2049 -22,423 -203,623 -621,686 -373,56 -848,102 -1239,132l37 445c1179,-97 1790,-436 2025,470 301,1158 677,1300 -265,1852 67,105 134,210 171,393 1006,-418 846,-225 1404,455 890,1083 1238,938 101,2273 229,78 213,135 347,246 298,-235 540,-888 994,-936 342,-36 1016,433 1383,583 386,157 1137,317 1346,564 288,338 17,1250 -34,1703l431 48c110,-507 61,-1413 449,-1645 209,-125 1499,-147 1919,-225 556,-104 1218,-482 1593,-41 183,216 524,1120 694,1452 122,-69 197,-150 409,-162 -572,-1397 -1064,-1674 -169,-2265 299,-197 850,-655 1035,-696 496,-111 831,416 1109,611 107,-107 165,-172 274,-295 -169,-268 -887,-587 -643,-1204 37,-95 528,-786 742,-1218 105,-211 206,-445 296,-682 414,-1092 148,-1244 1673,-1002 -24,-236 1,-279 71,-455 -1755,-48 -1124,-671 -1393,-2242 -97,-571 -261,-927 -394,-1424 -169,-632 350,-837 767,-1015 -111,-128 -187,-178 -194,-396 -390,176 -815,558 -1238,119l-796 -976c-216,-244 -767,-560 -559,-1108 84,-222 568,-822 728,-1045l-351 -238c-10,9 -23,10 -27,28l-350 462c-104,143 -249,373 -360,480 -442,428 -957,-59 -1808,-376 -195,-73 -453,-130 -628,-209 -570,-259 -332,-712 -315,-1321 -231,13 -250,-7 -431,-71 -108,1571 -624,1058 -1958,1227 -1513,192 -1323,450 -1871,-969z"/>
  <g id="_2511086703216">
   <path class="fil1" d="M15078 1811l351 238c1092,142 1254,-993 682,-1356 -330,-210 -795,-125 -1000,105 -285,321 -185,667 -33,1013z"/>
   <path class="fil1" d="M16369 14697c-109,123 -167,188 -274,295 -201,1069 795,1246 1168,784 195,-242 209,-643 13,-903 -217,-288 -522,-271 -907,-176z"/>
   <path class="fil1" d="M9056 17963l-431 -48c-284,104 -505,293 -494,653 10,314 247,581 551,618 688,84 1051,-779 374,-1223z"/>
   <path class="fil1" d="M1153 10312l-37 -445c-141,-165 -333,-393 -720,-281 -262,76 -426,326 -393,634 63,585 822,726 1150,92z"/>
   <path class="fil1" d="M3084 13027c-37,-183 -104,-288 -171,-393 -237,-85 -460,-210 -728,2 -171,136 -277,419 -150,686 213,449 1013,442 1049,-295z"/>
   <path class="fil1" d="M6912 1199l417 -137c92,-197 256,-401 79,-715 -97,-171 -365,-321 -662,-220 -480,163 -551,959 166,1072z"/>
   <path class="fil1" d="M2714 7000c80,-164 120,-184 125,-432 -90,-186 -115,-302 -378,-336 -219,-29 -402,106 -465,249 -211,475 243,753 718,519z"/>
   <path class="fil1" d="M11159 804c181,64 200,84 431,71 380,-228 408,-715 5,-847 -241,-79 -450,32 -531,174 -137,245 3,452 95,602z"/>
   <path class="fil1" d="M4578 3457c182,-119 181,-130 315,-309 23,-549 -452,-766 -755,-450 -116,121 -171,329 -66,519 107,195 237,220 506,240z"/>
   <path class="fil1" d="M13711 17504c-54,181 -105,370 15,541 89,126 298,226 506,157 401,-133 425,-733 -112,-860 -212,12 -287,93 -409,162z"/>
   <path class="fil1" d="M18508 10136c-70,176 -95,219 -71,455 424,575 820,130 858,-59 49,-239 -89,-417 -224,-489 -235,-126 -412,-8 -563,93z"/>
   <path class="fil1" d="M4936 16001c-134,-111 -118,-168 -347,-246 -566,31 -656,577 -328,802 376,258 750,-39 675,-556z"/>
   <path class="fil1" d="M17294 5059c7,218 83,268 194,396 425,84 713,-195 511,-539 -184,-315 -587,-249 -705,143z"/>
  </g>
 </g>
</svg>
