<?xml version="1.0" encoding="UTF-8"?>
<!DOCTYPE svg PUBLIC "-//W3C//DTD SVG 1.1//EN" "http://www.w3.org/Graphics/SVG/1.1/DTD/svg11.dtd">
<!-- Creator: CorelDRAW X8 -->
<svg xmlns="http://www.w3.org/2000/svg" xml:space="preserve" width="210mm" height="209.973mm" version="1.1" style="shape-rendering:geometricPrecision; text-rendering:geometricPrecision; image-rendering:optimizeQuality; fill-rule:evenodd; clip-rule:evenodd"
viewBox="0 0 21000 20997"
 xmlns:xlink="http://www.w3.org/1999/xlink">
 <defs>
  <style type="text/css">
   <![CDATA[
    .fil0 {fill:#E4E4E4}
   ]]>
  </style>
 </defs>
 <g id="Capa_x0020_1">
  <metadata id="CorelCorpID_0Corel-Layer"/>
  <path class="fil0" d="M10476 19537c-1752,-122 -3151,-405 -4466,-1177 -3987,-2340 -5559,-6855 -3775,-11478 434,406 1185,1668 1664,2330 1750,2414 4811,2451 5118,4026 152,781 -152,1739 215,2390 339,602 700,746 1040,1566 277,666 285,1525 204,2343zm24 -19537c5798,0 10499,4700 10499,10499 0,5798 -4701,10498 -10499,10498 -5798,0 -10499,-4700 -10499,-10498 0,-5799 4701,-10499 10499,-10499zm-3518 2263c383,-293 1473,-540 2072,-626 0,691 7,745 -385,1155 -756,114 -1156,-325 -1687,-529zm2169 4547c247,-174 501,-524 706,-588 550,-173 493,95 922,-340 897,-908 -789,-639 123,-1606 315,-333 1134,-794 499,-1491 -302,-332 -996,-826 -1166,-1292 2241,0 4134,607 5674,1793 949,731 2232,1978 2604,3187 -827,655 -386,-124 -1290,1232 -289,435 -903,1057 -621,1804 94,251 852,1324 1027,1493 475,456 1100,400 1811,692 -436,3716 -3378,6906 -6964,7603 130,-729 620,-1703 855,-2488 451,-1509 710,-819 1299,-1978 627,-1232 -175,-1756 -635,-2223 -840,-853 -1040,-649 -2531,-649 -1856,0 -1547,298 -2434,-840 -713,-915 -1127,-503 -2261,-1025 -350,-161 -824,-387 -509,-918 167,-281 742,-392 1117,-521 1826,-627 1331,722 2352,344 68,-84 66,102 143,-245 31,-144 10,-136 -32,-261 -141,-413 -615,-900 -689,-1683z"/>
 </g>
</svg>
