<?xml version="1.0" encoding="UTF-8"?>
<!DOCTYPE svg PUBLIC "-//W3C//DTD SVG 1.1//EN" "http://www.w3.org/Graphics/SVG/1.1/DTD/svg11.dtd">
<!-- Creator: CorelDRAW X8 -->
<svg xmlns="http://www.w3.org/2000/svg" xml:space="preserve" width="210mm" height="208.449mm" version="1.1" style="shape-rendering:geometricPrecision; text-rendering:geometricPrecision; image-rendering:optimizeQuality; fill-rule:evenodd; clip-rule:evenodd"
viewBox="0 0 21000 20845"
 xmlns:xlink="http://www.w3.org/1999/xlink">
 <defs>
  <style type="text/css">
   <![CDATA[
    .fil0 {fill:#64707D}
   ]]>
  </style>
 </defs>
 <g id="Capa_x0020_1">
  <metadata id="CorelCorpID_0Corel-Layer"/>
  <g id="_2090049313424">
   <path class="fil0" d="M5317 5272c1091,322 1928,678 3311,-18 1312,-660 1567,-1705 1872,-2112 344,474 335,776 755,1223 1309,1393 2644,1580 4406,885 -471,1586 -746,2948 900,4430 446,402 891,505 1213,764 -2245,1123 -3077,2770 -2091,5129 -1088,-322 -1923,-685 -3311,18 -1318,667 -1563,1699 -1872,2112 -446,-614 -508,-1371 -1863,-2118 -1126,-620 -2248,-404 -3298,10 474,-1596 736,-2958 -900,-4430 -446,-402 -891,-505 -1213,-764 2240,-1121 3074,-2777 2091,-5129zm-2461 -1022c234,684 1084,892 1430,1939 343,1037 -85,2024 -644,2517 -1018,898 -1689,308 -2778,618 -963,275 -1117,1586 -302,2063 725,425 1735,-63 2830,568 594,343 1171,1283 987,2359 -205,1199 -916,1318 -1390,1999 -554,794 187,2038 1292,1731 722,-200 902,-1077 1978,-1423 987,-317 2049,109 2522,644 894,1011 298,1738 621,2774 237,761 1373,1214 2050,288 408,-557 -16,-1757 590,-2804 346,-597 1267,-1168 2358,-989 1141,186 1359,939 2002,1384 796,553 2043,-187 1735,-1289 -193,-694 -1079,-931 -1423,-1973 -343,-1037 85,-2024 644,-2517 1018,-898 1689,-308 2778,-618 963,-275 1117,-1586 302,-2063 -744,-436 -1735,81 -2824,-573 -599,-360 -1182,-1249 -993,-2354 205,-1199 916,-1318 1390,-1999 575,-825 -234,-2048 -1292,-1736 -721,212 -913,1084 -1978,1428 -986,319 -2050,-111 -2522,-644 -894,-1011 -298,-1739 -621,-2774 -237,-761 -1373,-1214 -2050,-288 -408,557 16,1757 -590,2804 -346,597 -1267,1168 -2358,989 -1141,-186 -1359,-938 -2002,-1384 -852,-591 -2094,296 -1742,1323z"/>
   <path class="fil0" d="M9177 7244c1038,0 1879,841 1879,1879 0,1038 -841,1879 -1879,1879 -1038,0 -1879,-841 -1879,-1879 0,-1038 841,-1879 1879,-1879zm0 1013c478,0 866,388 866,866 0,478 -388,866 -866,866 -479,0 -866,-388 -866,-866 0,-478 387,-866 866,-866z"/>
   <circle class="fil0" cx="12456" cy="12386" r="449"/>
  </g>
 </g>
</svg>
