<?xml version="1.0" encoding="UTF-8"?>
<!DOCTYPE svg PUBLIC "-//W3C//DTD SVG 1.1//EN" "http://www.w3.org/Graphics/SVG/1.1/DTD/svg11.dtd">
<!-- Creator: CorelDRAW X8 -->
<svg xmlns="http://www.w3.org/2000/svg" xml:space="preserve" width="210mm" height="209.973mm" version="1.1" style="shape-rendering:geometricPrecision; text-rendering:geometricPrecision; image-rendering:optimizeQuality; fill-rule:evenodd; clip-rule:evenodd"
viewBox="0 0 21000 20997"
 xmlns:xlink="http://www.w3.org/1999/xlink">
 <defs>
  <style type="text/css">
   <![CDATA[
    .fil1 {fill:#E4E4E4}
    .fil0 {fill:#FF005E}
   ]]>
  </style>
 </defs>
 <g id="Capa_x0020_1">
  <metadata id="CorelCorpID_0Corel-Layer"/>
  <g id="_2090036711664">
   <path class="fil0" d="M18771 7345c-12,-17 1,-18 -67,-69 -31,-23 -83,-52 -135,-79l-2981 -1516c-616,-293 -759,-444 -1240,-424 -795,1108 605,1566 1570,2042 441,219 927,399 1365,632 816,433 257,1346 232,1361 -412,55 -1285,-451 -1629,-635 -311,-166 -596,-230 -819,36 -149,177 -315,595 -194,916 72,190 3961,2363 4724,3106 185,181 379,469 527,587 360,-130 669,-990 771,-1515 257,-1324 -66,-1212 -306,-1721 -298,-632 153,-1280 -367,-1803 -240,-242 -1028,-784 -1451,-918z"/>
   <path class="fil0" d="M14722 10944l-1390 -791c-620,-332 -1029,-659 -1435,89 -373,690 199,971 644,1257 405,259 1004,611 1475,801 37,83 98,97 223,163 1000,533 3116,1665 3891,2273 187,146 321,345 551,411 421,-104 1003,-1059 525,-1488 -667,-599 -3818,-2522 -4484,-2715z"/>
   <path class="fil0" d="M13502 19730c-203,-282 -1497,-775 -1882,-939 -458,-194 -1826,-966 -1897,-109 -39,473 1380,884 1771,1024 313,112 730,312 1003,388 288,79 829,-88 1005,-364z"/>
   <path class="fil0" d="M20218 6238c-42,-229 -840,-684 -1026,-700 -143,351 31,774 163,1106 25,17 94,105 155,164 268,260 762,462 1189,1033 120,161 175,433 301,565 -84,-278 -145,-793 -239,-1177 -93,-377 -190,-815 -543,-991z"/>
   <path class="fil0" d="M8700 17450c97,52 127,67 216,116 799,439 1069,2 1144,-311 105,-435 -430,-557 -783,-776 -663,-338 -1335,-776 -1946,-1164 -735,-466 -1765,-1444 -2196,-1239 -245,116 -541,672 49,1167 1121,939 2429,1442 3516,2207z"/>
   <path class="fil0" d="M10852 20420c4,56 20,-86 -43,33 -76,143 -73,-89 -13,72 313,-7 1127,-51 1322,-177 -291,-176 -708,-283 -1061,-383 -407,-116 -877,-342 -1035,161 167,155 509,219 830,294z"/>
   <path class="fil1" d="M10067 4891c-158,102 -270,337 -266,533 11,487 1203,1199 1365,1204 128,216 1312,892 1468,913 557,76 990,-834 314,-1330l-1444 -885c-573,-365 -1174,-1019 -1437,-435z"/>
   <path class="fil1" d="M4133 18126l153 -81c163,27 1005,565 1269,712 459,256 1093,644 1639,746 63,11 165,-9 227,-66l103 -129c361,82 735,236 1104,373 369,138 932,413 965,-173 -60,-199 -1790,-838 -2214,-1136 -1808,-894 -1030,-840 -1142,-1399 -64,-314 -1016,-849 -1359,-1092 -1058,-749 -1969,-1579 -2815,-2565 -316,-368 -694,-862 -987,-1339 -295,-480 -675,-1369 -884,-1440 -629,531 469,2290 713,2655 124,184 267,352 406,540 137,186 289,328 423,517 176,247 774,771 502,1264 -596,-180 -1167,-1467 -1539,-1596 -52,429 76,424 164,735 -135,146 -147,-108 -114,198 34,94 226,398 313,505 149,194 477,487 779,873 478,609 1058,1368 1717,1864 497,373 2610,1732 3233,1688 -217,-442 -2431,-1267 -2656,-1654z"/>
   <path class="fil1" d="M6850 11571c-100,-75 -202,-147 -275,-211 -483,-425 -1126,-970 -1555,-1442l-372 -402c-212,-211 -480,-535 -747,-900 -474,-648 -1034,-1549 -1281,-2328 -136,-430 -249,-1047 -259,-1361 -5,-133 5,-261 10,-392l-14 -267c-3,-16 -11,-35 -14,-48 -3,-13 -9,-32 -16,-47 -258,-50 -550,309 -667,500 -433,711 -23,1562 -182,2152 -80,296 -281,625 -563,695 -273,-551 -65,-1332 -99,-2001 -442,175 -644,1258 -641,2188 1,621 149,1216 343,1800 308,930 1129,2145 1613,2743 433,534 750,880 1175,1319 139,143 462,496 777,236 461,-382 155,-1023 -165,-1397l-296 -370c-13,-13 -467,-486 -514,-692 -77,-334 67,-593 360,-763 205,-28 733,675 933,891 352,380 2143,1773 2409,1825 541,107 829,-472 808,-969 -32,-55 -59,-100 -84,-139 -104,-163 -509,-490 -684,-620z"/>
   <path class="fil1" d="M10086 20425c-791,-135 -1784,-556 -1864,-362 13,138 15,145 429,257 560,151 1124,232 1719,187l-284 -82z"/>
   <path class="fil1" d="M18462 4078c126,141 389,281 605,291 0,-425 -467,-1050 -973,-1232 -167,-162 -2081,-958 -2379,-960l-4148 -1704c92,647 517,801 1068,1068 239,115 503,224 673,377 160,143 348,469 268,679 -446,229 -1536,-974 -1953,-721 -334,651 284,994 678,1217 341,194 1000,594 1382,714 191,196 3040,1481 3652,1800 291,151 999,623 1299,483 124,-261 -5,-696 -139,-917 -154,-256 -440,-369 -728,-505 -678,-320 -915,-465 -1131,-1287 591,-25 1419,673 1826,697z"/>
   <path class="fil1" d="M12098 16768c157,608 -1134,624 406,1371 1234,598 995,383 2130,1091 369,230 983,-308 1146,-609 -106,-215 -268,-228 -375,-444 134,-294 355,-503 589,-631 403,-220 485,-8 728,146l182 516c306,-137 474,-322 690,-561 170,-186 500,-375 209,-753 -493,-643 -2781,-1760 -3692,-2309 -806,-487 -1568,-1051 -2056,-707 -161,113 -408,498 -575,608 -615,406 -2099,-1616 -2831,-948 -713,652 -171,1042 355,1386 453,297 3033,1607 3094,1844z"/>
  </g>
 </g>
</svg>
