<?xml version="1.0" encoding="UTF-8"?>
<!DOCTYPE svg PUBLIC "-//W3C//DTD SVG 1.1//EN" "http://www.w3.org/Graphics/SVG/1.1/DTD/svg11.dtd">
<!-- Creator: CorelDRAW X8 -->
<svg xmlns="http://www.w3.org/2000/svg" xml:space="preserve" width="210mm" height="208.449mm" version="1.1" style="shape-rendering:geometricPrecision; text-rendering:geometricPrecision; image-rendering:optimizeQuality; fill-rule:evenodd; clip-rule:evenodd"
viewBox="0 0 21000 20845"
 xmlns:xlink="http://www.w3.org/1999/xlink">
 <defs>
  <style type="text/css">
   <![CDATA[
    .fil0 {fill:#E0E0E0}
   ]]>
  </style>
 </defs>
 <g id="Capa_x0020_1">
  <metadata id="CorelCorpID_0Corel-Layer"/>
  <g id="_2089976103200">
   <path class="fil0" d="M10419 3843l162 0c533,0 969,436 969,969l0 1706 1951 0c533,0 969,437 969,969l0 162c0,533 -436,969 -969,969l-1951 0 0 4917c0,533 -436,969 -969,969l-162 0c-533,0 -969,-436 -969,-969l0 -4917 -1951 0c-533,0 -969,-436 -969,-969l0 -162c0,-533 436,-969 969,-969l1951 0 0 -1706c0,-533 436,-969 969,-969z"/>
   <path class="fil0" d="M443 18904l2250 0 0 -11095c0,-4312 3496,-7807 7807,-7807 4311,0 7807,3495 7807,7807l0 11095 2250 0c244,0 443,200 443,444l0 1052c0,244 -199,443 -443,443l-20114 0c-244,0 -443,-199 -443,-443l0 -1052c0,-244 199,-444 443,-444zm3903 0l12308 0 0 -11092 0 -3c0,-3399 -2755,-6154 -6154,-6154 -3399,0 -6154,2755 -6154,6154l0 11095z"/>
  </g>
 </g>
</svg>
