<?xml version="1.0" encoding="UTF-8"?>
<!DOCTYPE svg PUBLIC "-//W3C//DTD SVG 1.1//EN" "http://www.w3.org/Graphics/SVG/1.1/DTD/svg11.dtd">
<!-- Creator: CorelDRAW X8 -->
<svg xmlns="http://www.w3.org/2000/svg" xml:space="preserve" width="305.477mm" height="84.1586mm" version="1.1" style="shape-rendering:geometricPrecision; text-rendering:geometricPrecision; image-rendering:optimizeQuality; fill-rule:evenodd; clip-rule:evenodd"
viewBox="0 0 30548 8416"
 xmlns:xlink="http://www.w3.org/1999/xlink">
 <defs>
  <style type="text/css">
   <![CDATA[
    .fil2 {fill:#E4E4E4}
    .fil0 {fill:#FF005E}
    .fil3 {fill:#E4E4E4;fill-rule:nonzero}
    .fil1 {fill:#FF005E;fill-rule:nonzero}
   ]]>
  </style>
 </defs>
 <g id="Capa_x0020_1">
  <metadata id="CorelCorpID_0Corel-Layer"/>
  <path class="fil0" d="M7877 2884c-5,-7 1,-7 -28,-28 -13,-10 -35,-22 -56,-33l-1251 -637c-259,-122 -319,-186 -521,-178 -334,466 254,658 659,857 185,92 389,168 573,265 342,182 107,565 97,571 -173,24 -539,-189 -683,-266 -131,-70 -250,-96 -344,15 -63,75 -132,250 -81,384 30,80 1662,992 1982,1304 77,76 159,197 221,246 151,-54 281,-415 323,-636 108,-555 -27,-508 -128,-722 -125,-265 64,-537 -154,-756 -101,-102 -431,-329 -609,-386z"/>
  <path class="fil0" d="M6178 4395l-583 -332c-260,-140 -432,-277 -602,37 -157,290 83,408 270,528 170,108 421,256 619,336 16,35 41,40 94,68 419,224 1307,699 1632,954 79,61 135,145 231,172 177,-43 421,-444 221,-624 -280,-251 -1602,-1058 -1882,-1139z"/>
  <path class="fil0" d="M5666 8082c-85,-119 -628,-326 -790,-394 -192,-82 -766,-406 -795,-46 -17,198 579,371 743,429 131,47 306,132 421,163 120,33 347,-37 421,-152z"/>
  <path class="fil0" d="M8484 2420c-17,-96 -352,-287 -430,-294 -60,148 13,325 68,464 11,7 40,44 65,69 113,109 320,194 499,434 51,67 74,181 127,237 -36,-117 -61,-333 -101,-494 -39,-158 -80,-342 -228,-416z"/>
  <path class="fil0" d="M3651 7125c41,22 53,28 91,48 335,185 448,1 480,-130 44,-182 -180,-234 -329,-326 -278,-142 -560,-325 -816,-488 -308,-196 -741,-606 -922,-520 -103,49 -227,282 21,490 470,394 1019,605 1475,926z"/>
  <path class="fil0" d="M4554 8371c2,24 9,-36 -18,14 -32,60 -30,-37 -5,30 131,-3 473,-21 554,-74 -122,-74 -297,-119 -445,-161 -170,-49 -368,-143 -434,68 70,65 214,92 348,123z"/>
  <path class="fil1" d="M12776 2277l0 213 -1774 0 0 1639 1550 0 0 213 -1550 0 0 1863 -252 0 0 -3928 2026 0zm509 2406c0,-313 63,-587 188,-822 125,-235 298,-416 520,-543 222,-127 475,-190 758,-190 321,0 594,78 817,235 224,156 381,356 471,598l0 -794 251 0 0 3038 -251 0 0 -800c-90,246 -248,449 -473,607 -226,159 -497,238 -815,238 -283,0 -536,-64 -758,-193 -222,-129 -395,-311 -520,-548 -125,-237 -188,-512 -188,-826zm2754 0c0,-265 -55,-499 -166,-702 -110,-203 -260,-360 -450,-470 -190,-110 -403,-165 -638,-165 -246,0 -463,53 -649,159 -187,107 -332,261 -437,462 -104,201 -156,440 -156,716 0,276 52,515 156,717 105,201 251,356 440,464 188,108 404,162 646,162 235,0 449,-55 641,-165 192,-110 342,-267 450,-470 108,-203 163,-439 163,-708zm1421 -716c93,-246 252,-448 476,-604 223,-157 494,-235 811,-235 284,0 536,63 758,190 222,127 396,308 521,543 125,235 187,509 187,822 0,314 -62,589 -187,826 -125,237 -299,419 -521,548 -222,129 -474,193 -758,193 -317,0 -589,-78 -814,-235 -226,-157 -384,-358 -473,-604l0 794 -252 0 0 -4141 252 0 0 1903zm2496 716c0,-276 -53,-515 -157,-716 -104,-201 -251,-355 -439,-462 -189,-106 -406,-159 -652,-159 -235,0 -448,55 -638,165 -190,110 -340,267 -448,470 -108,203 -162,437 -162,702 0,269 54,505 162,708 108,203 258,360 448,470 190,110 403,165 638,165 246,0 463,-54 652,-162 188,-108 335,-263 439,-464 104,-202 157,-441 157,-717z"/>
  <path class="fil2" d="M4225 1855c-66,43 -114,141 -112,224 5,204 505,503 573,505 54,90 550,374 616,383 234,32 415,-350 132,-558l-606 -371c-241,-154 -493,-428 -603,-183z"/>
  <path class="fil2" d="M1735 7408l64 -33c68,11 422,237 532,298 193,108 459,270 688,313 27,5 70,-3 96,-28l43 -54c151,35 308,99 463,157 155,58 391,173 405,-73 -25,-83 -751,-351 -929,-476 -759,-375 -432,-353 -479,-587 -27,-132 -427,-357 -571,-459 -444,-314 -826,-662 -1181,-1076 -132,-154 -291,-362 -414,-562 -124,-201 -283,-574 -371,-604 -264,223 197,961 299,1114 52,77 112,148 170,227 58,78 122,137 178,217 74,103 325,323 211,530 -250,-75 -490,-615 -646,-669 -22,179 32,177 69,308 -57,61 -62,-45 -48,83 14,39 95,167 131,212 63,81 200,204 327,366 201,256 444,574 721,782 208,157 1095,727 1357,709 -92,-186 -1021,-532 -1115,-695z"/>
  <path class="fil2" d="M2875 4658c-42,-32 -85,-62 -116,-89 -202,-178 -472,-407 -652,-605l-156 -169c-89,-88 -201,-224 -313,-377 -199,-272 -434,-650 -538,-977 -57,-180 -104,-439 -109,-571 -2,-56 2,-110 4,-165l-6 -112c-1,-6 -4,-14 -5,-20 -2,-5 -4,-13 -7,-20 -108,-20 -231,130 -280,211 -182,298 -10,655 -76,902 -34,125 -118,263 -237,292 -114,-231 -27,-559 -41,-840 -185,74 -270,528 -269,919 1,260 62,510 144,755 129,390 474,900 677,1151 182,224 314,369 493,553 58,60 194,209 326,99 193,-160 65,-429 -69,-586l-125 -155c-5,-6 -195,-204 -215,-290 -33,-141 28,-249 151,-321 86,-11 307,283 391,374 148,160 899,744 1011,766 227,45 348,-198 339,-407 -13,-23 -25,-42 -35,-58 -44,-68 -214,-206 -287,-260z"/>
  <path class="fil2" d="M4233 8373c-332,-56 -749,-233 -782,-152 5,58 6,61 180,108 235,64 471,97 721,79l-119 -35z"/>
  <path class="fil2" d="M7748 1514c52,59 163,118 254,122 -1,-179 -197,-441 -409,-517 -70,-68 -873,-402 -998,-403l-1741 -715c39,271 217,336 448,448 101,49 211,94 283,158 67,60 146,197 112,285 -187,96 -644,-409 -819,-302 -140,273 119,417 284,510 143,82 420,250 580,300 81,82 1276,621 1533,755 122,64 419,262 545,203 52,-110 -2,-292 -58,-385 -65,-107 -185,-155 -306,-212 -284,-134 -384,-195 -475,-540 248,-10 596,283 767,293z"/>
  <path class="fil2" d="M5077 6838c66,256 -476,262 170,576 518,251 418,161 894,458 155,96 413,-130 481,-256 -44,-90 -112,-95 -157,-186 56,-123 149,-211 247,-265 169,-92 204,-3 305,62l77 216c128,-58 199,-135 290,-235 70,-78 209,-158 87,-316 -207,-270 -1167,-739 -1549,-970 -338,-204 -658,-440 -863,-296 -68,48 -171,209 -241,255 -258,171 -881,-678 -1188,-398 -299,274 -72,437 149,582 190,125 1272,674 1298,773z"/>
  <path class="fil3" d="M20942 4635c0,-319 72,-605 216,-857 144,-253 341,-449 590,-590 250,-141 529,-212 839,-212 363,0 680,93 953,279 272,186 463,443 571,771l-748 0c-74,-155 -179,-271 -313,-348 -135,-78 -291,-116 -468,-116 -188,0 -357,44 -504,132 -147,88 -261,213 -344,374 -82,161 -123,350 -123,567 0,214 41,402 123,565 83,162 197,288 344,376 147,88 316,133 504,133 177,0 333,-40 468,-119 134,-79 239,-196 313,-351l748 0c-108,332 -298,590 -569,774 -271,184 -589,276 -955,276 -310,0 -589,-70 -839,-211 -249,-141 -446,-337 -590,-588 -144,-251 -216,-536 -216,-855zm4870 1668c-248,0 -471,-55 -669,-165 -198,-110 -354,-265 -467,-467 -113,-201 -170,-433 -170,-697 0,-263 58,-495 175,-697 116,-201 274,-357 476,-467 201,-110 426,-165 674,-165 247,0 472,55 673,165 202,110 361,266 477,467 116,202 174,434 174,697 0,264 -60,496 -179,697 -119,202 -280,357 -483,467 -203,110 -430,165 -681,165zm0 -567c118,0 229,-28 332,-86 104,-57 187,-143 249,-257 62,-115 93,-254 93,-419 0,-244 -64,-433 -193,-564 -129,-132 -286,-198 -472,-198 -186,0 -341,66 -467,198 -125,131 -188,320 -188,564 0,245 61,433 184,565 122,132 276,197 462,197zm4735 -2718l-1189 3243 -790 0 -1190 -3243 697 0 892 2579 888 -2579 692 0z"/>
 </g>
</svg>
