<?xml version="1.0" encoding="UTF-8"?>
<!DOCTYPE svg PUBLIC "-//W3C//DTD SVG 1.1//EN" "http://www.w3.org/Graphics/SVG/1.1/DTD/svg11.dtd">
<!-- Creator: CorelDRAW X8 -->
<svg xmlns="http://www.w3.org/2000/svg" xml:space="preserve" width="297mm" height="159.597mm" version="1.1" style="shape-rendering:geometricPrecision; text-rendering:geometricPrecision; image-rendering:optimizeQuality; fill-rule:evenodd; clip-rule:evenodd"
viewBox="0 0 29700 15960"
 xmlns:xlink="http://www.w3.org/1999/xlink">
 <defs>
  <style type="text/css">
   <![CDATA[
    .fil0 {fill:#418FDE}
   ]]>
  </style>
 </defs>
 <g id="Capa_x0020_1">
  <metadata id="CorelCorpID_0Corel-Layer"/>
  <g id="_307405.svg">
   <g>
    <path class="fil0" d="M7484 24c-165,18 -244,67 -244,150 0,24 -34,33 -127,33 -91,0 -130,9 -146,37 -12,23 -75,49 -147,60 -69,14 -167,31 -218,40l-93 16 75 19c39,9 88,41 109,72 44,67 113,90 174,60 32,-19 72,-16 141,9 147,51 304,44 455,-23 149,-65 218,-74 218,-23 0,102 -436,239 -596,188 -28,-10 -74,-5 -100,9 -42,21 -44,32 -21,60 47,56 198,126 274,126 81,0 111,34 72,81 -60,72 -385,18 -418,-67 -9,-28 -34,-65 -55,-82 -21,-16 -37,-55 -37,-86 0,-32 -14,-55 -33,-55 -19,0 -97,-30 -174,-68 -169,-78 -292,-69 -207,17 21,21 14,28 -34,28 -35,0 -84,20 -112,48 -44,44 -44,54 -14,84 19,18 86,44 147,56 62,11 120,30 134,44 21,21 14,25 -88,55 -28,10 -28,24 -7,70 23,51 42,60 135,60 71,0 127,-16 167,-46 32,-26 69,-47 86,-47 39,0 218,110 266,163 40,42 40,46 3,60 -44,16 -153,-23 -153,-58 0,-11 27,-9 62,9 77,40 102,26 40,-23 -56,-44 -128,-44 -186,-2 -44,35 -44,35 0,67 23,19 37,44 28,58 -26,42 -60,33 -44,-9 11,-32 7,-35 -35,-12 -118,63 -67,79 374,116 232,21 287,19 366,-11 100,-42 123,-79 37,-63 -62,12 -225,-49 -225,-83 0,-14 49,-26 112,-26 148,-2 399,-118 399,-190 0,-9 -37,-19 -81,-19 -54,0 -82,-11 -82,-30 0,-32 93,-86 151,-86 19,0 35,-16 35,-35 0,-41 84,-46 176,-11 56,21 77,16 158,-42 54,-37 184,-114 293,-167 174,-88 190,-102 139,-116 -37,-9 -61,-5 -65,14 -9,39 -146,86 -174,58 -37,-37 2,-65 176,-130 91,-35 214,-84 272,-109l104 -44 -67 -61c-63,-53 -84,-58 -209,-48 -160,14 -200,4 -200,-42 0,-16 -23,-37 -51,-42 -99,-21 -772,-28 -935,-12l0 1z"/>
    <path class="fil0" d="M10752 44c-14,56 -91,61 -200,17 -42,-19 -151,-31 -248,-31 -163,3 -174,7 -181,54 -10,60 34,72 55,18 21,-51 63,-41 126,21 32,37 46,72 37,98 -14,35 -44,37 -265,28 -278,-17 -306,-12 -306,53 0,53 -74,60 -116,9 -16,-18 -37,-35 -49,-35 -11,0 -21,17 -21,35 0,28 -37,35 -178,37 -235,3 -365,40 -374,109 -9,59 -88,123 -132,107 -17,-7 -37,-2 -47,12 -7,14 -41,25 -76,25 -91,3 -279,91 -242,114 19,9 75,12 128,0 53,-9 104,-12 116,-5 28,17 -77,186 -132,212 -49,25 -98,37 -297,74 -135,25 -244,79 -207,102 14,9 105,23 200,30 262,21 283,98 37,137 -93,14 -158,56 -88,56 18,0 48,23 67,49 37,58 51,60 494,25 369,-28 323,-44 495,183 153,205 199,290 213,393l14 104 32 -65c40,-79 96,-74 126,14 28,77 2,130 -81,172l-56 30 58 0c63,0 209,79 209,111 0,12 -21,40 -47,63 -55,51 -58,88 -9,130 33,25 26,35 -46,72 -95,49 -116,102 -26,60 33,-14 65,-18 72,-11 19,18 -32,153 -74,201 -16,21 -26,61 -19,89 12,41 23,46 58,25 40,-21 44,-14 44,65 0,160 205,411 369,453 65,16 105,41 114,69 14,56 44,54 137,-18 65,-49 77,-72 77,-158 0,-53 16,-118 34,-144 19,-23 35,-63 35,-88 0,-65 267,-316 339,-316 116,0 218,-62 262,-162 23,-54 70,-112 105,-130 32,-19 88,-49 125,-67 39,-21 128,-35 237,-35 95,-3 215,-19 267,-37 51,-19 148,-51 218,-72 151,-47 113,-72 -107,-75 -109,-2 -146,-11 -146,-34 0,-19 14,-38 32,-45 19,-6 37,-37 42,-67 5,-42 23,-56 90,-60 70,-7 86,2 110,53 39,88 141,70 106,-21 -25,-67 -160,-130 -276,-130 -107,0 -109,-2 -95,-60 12,-44 2,-70 -37,-102 -67,-53 -42,-81 74,-74 79,4 93,0 93,-40 0,-74 60,-72 218,12 179,93 202,97 132,23 -67,-70 -46,-107 58,-107 44,0 79,-7 79,-18 -2,-40 -86,-114 -146,-130 -86,-21 -79,-72 14,-102l74 -24 -86 -2c-46,-2 -92,-14 -102,-30 -30,-46 65,-91 184,-84 65,5 106,-2 99,-16 -2,-14 -23,-21 -41,-16 -40,7 -135,-79 -135,-123 0,-16 -7,-47 -14,-65 -7,-21 19,-51 70,-81 46,-28 83,-63 83,-77 0,-16 17,-49 40,-72 35,-39 35,-42 -33,-28 -46,10 -76,3 -88,-16 -30,-44 49,-86 197,-102 75,-9 142,-28 147,-44 6,-16 78,-53 157,-84 137,-48 144,-53 91,-74 -33,-12 -116,-16 -186,-9 -371,39 -506,58 -561,72 -56,14 -65,9 -65,-33 0,-46 -12,-48 -191,-48 -164,0 -232,13 -455,92 -239,82 -329,96 -329,47 0,-23 334,-174 457,-207 53,-14 181,-37 286,-51 106,-11 222,-37 264,-56 70,-30 65,-30 -95,-27 -179,4 -216,-10 -169,-65 25,-31 13,-35 -93,-35 -68,0 -258,16 -423,37 -164,21 -304,32 -313,26 -28,-28 44,-86 130,-103l84 -16 -116 -16c-63,-9 -198,-19 -298,-19 -164,-2 -183,3 -194,44l0 0zm-1502 374c14,23 -25,67 -60,67 -7,0 -26,-9 -44,-21 -40,-25 -12,-71 44,-71 23,0 51,11 60,25l0 0zm2627 1625c-5,13 -18,23 -30,23 -12,0 -26,-10 -30,-23 -5,-14 9,-26 30,-26 21,0 35,12 30,26z"/>
    <path class="fil0" d="M9898 68c-10,16 -7,37 7,51 32,32 104,4 92,-35 -14,-37 -79,-49 -99,-16z"/>
    <path class="fil0" d="M9758 112c-16,28 28,55 58,37 26,-16 10,-58 -23,-58 -11,0 -25,9 -35,21l0 0z"/>
    <path class="fil0" d="M12599 302c-26,14 -26,26 -5,46 28,28 100,14 100,-23 0,-32 -58,-46 -95,-23l0 0z"/>
    <path class="fil0" d="M18930 367c-7,32 -26,42 -61,32 -32,-9 -49,-2 -49,24 0,32 63,102 79,83 35,-39 79,-160 63,-169 -12,-7 -25,7 -32,30z"/>
    <path class="fil0" d="M19227 367c-19,35 7,72 48,72 21,0 33,-16 28,-40 -9,-46 -56,-64 -76,-32l0 0z"/>
    <path class="fil0" d="M18280 406c-19,19 2,56 32,56 12,0 21,-16 21,-35 0,-34 -28,-46 -53,-21z"/>
    <path class="fil0" d="M18639 441c-30,12 -81,14 -113,7 -44,-11 -56,-7 -49,16 7,19 26,33 44,35 19,0 51,10 74,19 47,21 156,-16 156,-54 0,-32 -54,-44 -112,-23l0 0z"/>
    <path class="fil0" d="M19020 432c-25,26 -14,53 21,53 19,0 35,-9 35,-21 0,-30 -37,-51 -56,-32z"/>
    <path class="fil0" d="M21529 430c-33,32 -17,81 25,74 21,-5 40,-23 40,-40 0,-37 -42,-58 -65,-34z"/>
    <path class="fil0" d="M8447 462c-30,19 -28,23 7,23 21,0 40,-11 40,-23 0,-28 -3,-28 -47,0l0 0z"/>
    <path class="fil0" d="M7489 522c-63,33 -107,65 -100,72 19,19 213,-58 246,-99 44,-51 -16,-40 -146,27z"/>
    <path class="fil0" d="M21816 516c-136,69 -120,118 45,127 204,12 269,-67 118,-144 -58,-30 -72,-30 -163,17l0 0z"/>
    <path class="fil0" d="M17939 518c-116,37 -109,102 23,167 56,28 111,46 121,42 32,-21 18,-51 -28,-63 -54,-14 -63,-81 -12,-100 19,-9 35,-23 35,-32 0,-35 -58,-42 -139,-14z"/>
    <path class="fil0" d="M19326 513c-37,12 -65,37 -65,56 0,23 17,30 65,18 109,-23 121,-30 121,-67 0,-39 -30,-42 -121,-7z"/>
    <path class="fil0" d="M18150 541c-23,28 -21,49 11,100 72,114 172,167 172,88 0,-21 -21,-35 -49,-35 -41,0 -44,-4 -20,-35 37,-44 129,-44 146,-2 11,26 46,33 141,28 144,-7 165,-19 144,-72 -11,-30 -23,-33 -62,-12 -40,21 -59,19 -93,-14 -26,-23 -84,-41 -137,-41 -49,-3 -98,-10 -107,-21 -28,-28 -118,-19 -146,16l0 0z"/>
    <path class="fil0" d="M19055 564c-30,33 -42,63 -30,70 37,21 90,-7 132,-70 32,-51 32,-55 -7,-55 -23,0 -67,25 -95,55z"/>
    <path class="fil0" d="M18751 553c0,46 46,141 69,141 24,0 105,-111 91,-125 -26,-23 -160,-37 -160,-16l0 0z"/>
    <path class="fil0" d="M15913 697c-40,71 -40,71 -82,25 -39,-46 -213,-93 -213,-58 0,9 12,35 23,53 14,24 7,49 -28,86l-48 51 -68 -55c-83,-70 -90,-70 -164,-12 -56,44 -156,65 -156,30 0,-7 16,-35 40,-58 34,-39 34,-42 -7,-42 -77,0 -219,47 -219,72 0,14 21,19 45,10 25,-7 51,-3 60,11 21,33 -54,116 -100,116 -28,0 -28,7 -5,35 33,40 93,47 93,12 0,-14 23,-12 58,4 49,24 75,19 149,-23 83,-46 165,-49 165,-5 0,12 -40,45 -86,75l-89 53 65 7c35,5 63,16 63,28 0,12 -28,42 -63,67 -44,33 -53,47 -27,49 21,0 55,21 79,46 23,26 51,47 60,47 9,0 51,-63 93,-137 39,-77 93,-158 116,-179 41,-37 51,-37 125,-2 56,28 79,51 74,83 -2,26 3,47 14,47 95,9 158,-2 151,-26 -5,-14 -60,-53 -125,-86 -63,-32 -139,-83 -167,-113 -28,-28 -61,-51 -75,-51 -11,0 -23,-10 -23,-21 0,-42 81,-49 258,-23 178,27 178,27 285,-40 58,-37 107,-74 107,-81 0,-9 -56,-23 -121,-30 -67,-10 -144,-21 -169,-28 -35,-7 -58,9 -88,63l0 0z"/>
    <path class="fil0" d="M16711 669c-39,25 -12,72 44,72 56,0 84,-47 44,-72 -18,-12 -37,-21 -44,-21 -7,0 -25,9 -44,21z"/>
    <path class="fil0" d="M17103 708c0,21 12,33 28,28 42,-14 49,-65 9,-65 -21,0 -37,16 -37,37l0 0z"/>
    <path class="fil0" d="M18953 685c-19,18 2,56 32,56 12,0 21,-17 21,-35 0,-35 -28,-47 -53,-21z"/>
    <path class="fil0" d="M21617 694c-16,26 90,58 125,35 14,-7 26,-23 26,-37 0,-28 -133,-28 -151,2l0 0z"/>
    <path class="fil0" d="M21881 703c-44,17 -109,45 -146,65l-67 35 172 42c95,23 218,63 273,86 121,51 142,35 142,-111 0,-126 -19,-140 -95,-65l-65 62 -23 -58c-28,-72 -88,-90 -191,-56l0 0z"/>
    <path class="fil0" d="M5825 729c0,37 62,74 86,49 16,-16 -37,-84 -65,-84 -12,0 -21,16 -21,35z"/>
    <path class="fil0" d="M12664 778c-19,18 2,55 32,55 12,0 21,-16 21,-34 0,-35 -28,-47 -53,-21z"/>
    <path class="fil0" d="M5414 852c23,23 40,53 40,67 0,14 25,19 60,12 42,-7 93,14 186,77 132,90 169,95 127,13 -56,-99 -260,-211 -392,-211 -56,0 -56,3 -21,42l0 0z"/>
    <path class="fil0" d="M22390 926c-96,102 -114,156 -47,128 21,-7 107,-30 191,-49 83,-21 160,-44 171,-56 26,-23 -118,-116 -181,-116 -25,0 -83,42 -134,93z"/>
    <path class="fil0" d="M16395 880c-9,16 -7,37 7,51 33,32 105,5 93,-35 -14,-37 -79,-49 -100,-16z"/>
    <path class="fil0" d="M16226 929c5,14 19,23 30,23 12,0 26,-9 30,-23 5,-14 -9,-26 -30,-26 -21,0 -35,12 -30,26z"/>
    <path class="fil0" d="M4827 996c-51,16 -46,18 35,23l93 2 -98 49c-95,44 -134,112 -70,112 52,0 226,-137 226,-175 0,-37 -86,-44 -186,-11z"/>
    <path class="fil0" d="M21749 998c5,14 19,23 30,23 12,0 26,-9 30,-23 5,-14 -9,-25 -30,-25 -21,0 -34,11 -30,25z"/>
    <path class="fil0" d="M22817 998c4,14 18,23 30,23 11,0 25,-9 30,-23 5,-14 -9,-25 -30,-25 -21,0 -35,11 -30,25z"/>
    <path class="fil0" d="M6055 1042c44,37 60,42 88,19 30,-23 28,-30 -10,-44 -23,-10 -62,-19 -88,-19 -44,0 -41,3 10,44z"/>
    <path class="fil0" d="M12583 1068c4,14 18,23 30,23 11,0 25,-9 30,-23 5,-14 -9,-26 -30,-26 -21,0 -35,12 -30,26z"/>
    <path class="fil0" d="M21645 1056c-19,19 2,56 32,56 12,0 21,-16 21,-35 0,-35 -28,-46 -53,-21z"/>
    <path class="fil0" d="M4595 1089c0,11 11,23 23,23 14,0 23,-12 23,-23 0,-14 -9,-23 -23,-23 -12,0 -23,9 -23,23z"/>
    <path class="fil0" d="M5375 1110c-10,16 -12,34 -5,41 21,21 44,-9 32,-41 -9,-26 -13,-26 -27,0z"/>
    <path class="fil0" d="M21478 1112c-10,14 -7,37 7,51 14,14 27,14 39,-5 9,-14 7,-37 -7,-51 -14,-14 -28,-14 -39,5z"/>
    <path class="fil0" d="M22501 1184c-46,56 -56,81 -37,114 35,65 30,69 -79,69 -56,0 -146,16 -202,37 -65,21 -134,30 -193,21 -48,-7 -178,5 -290,23 -109,21 -255,47 -324,61 -70,11 -151,37 -184,58l-56 37 49 51c74,79 65,132 -21,114 -39,-7 -151,-14 -250,-17 -179,-2 -179,-2 -186,61 -7,53 5,69 74,97 86,37 153,137 153,235 0,46 -11,58 -58,58 -48,0 -58,-12 -58,-65 0,-37 -18,-84 -39,-102 -63,-56 -211,-96 -290,-79 -42,7 -86,2 -102,-12 -72,-60 -26,23 51,95 60,54 76,81 53,93 -65,42 -216,-56 -262,-172l-28 -69 -53 86c-47,74 -49,97 -28,160 14,39 25,95 25,125 0,42 17,53 98,67 104,19 251,137 251,204 0,21 23,54 51,72 39,28 44,45 23,65 -44,44 -142,-16 -183,-116 -68,-160 -121,-160 -216,5 -93,165 -218,276 -286,255 -100,-30 -181,-81 -171,-109 13,-44 109,-46 155,-4 39,37 44,34 81,-21 65,-100 95,-341 63,-502 -16,-76 -23,-174 -16,-215 18,-96 -26,-140 -130,-128 -58,5 -86,25 -121,88 -23,44 -74,114 -111,151 -38,39 -68,79 -68,86 0,9 42,65 95,125 52,58 91,125 86,146 -11,56 -102,58 -174,7 -79,-55 -222,-97 -336,-97 -63,0 -109,18 -165,69 -97,86 -190,96 -165,19l14 -49 -76 44c-44,26 -126,65 -181,89 -105,39 -105,39 -144,-12 -37,-51 -40,-51 -135,-14 -53,23 -116,40 -139,40 -23,0 -98,39 -167,88 -170,118 -204,130 -255,83 -56,-51 -56,-72 4,-90 42,-14 44,-21 19,-44 -51,-44 -158,-84 -172,-63 -5,12 0,51 14,90 14,40 21,100 16,137 -7,58 -18,68 -111,77 -121,16 -209,65 -209,116 0,91 -95,116 -209,58 -81,-42 -88,-23 -23,46 42,45 44,54 14,82 -58,46 -202,-40 -258,-156 -25,-53 -72,-123 -102,-155 -51,-54 -51,-61 -14,-75 21,-9 93,3 158,26 197,72 411,53 459,-39 35,-63 -11,-100 -280,-230 -109,-54 -225,-112 -260,-128 -35,-18 -130,-32 -221,-32 -88,0 -169,-7 -178,-17 -10,-9 7,-34 37,-58 51,-39 51,-41 7,-41 -26,0 -72,-17 -102,-37 -31,-21 -61,-31 -70,-19 -7,12 -46,23 -88,23 -58,2 -70,-4 -61,-32 12,-28 3,-33 -41,-21 -31,9 -72,16 -93,16 -23,0 -37,16 -35,39 2,35 -16,42 -107,42 -88,0 -109,7 -100,35 7,26 -25,46 -123,77 -71,21 -155,39 -183,39 -46,0 -51,9 -37,70 12,65 5,74 -60,99 -42,14 -79,49 -86,75 -7,25 -63,76 -125,116 -63,37 -117,90 -121,113 -5,31 -35,54 -81,65 -89,24 -86,19 -42,103 46,90 44,132 -12,183 -39,35 -55,37 -107,16 -74,-35 -102,-35 -102,0 0,16 -46,72 -106,123l-107 93 21 197c16,184 23,197 74,204 81,12 153,-11 234,-78 42,-38 82,-54 93,-42 23,25 139,308 139,343 0,16 17,49 35,79l37 51 86 -46c47,-26 109,-47 137,-47 49,0 54,-11 54,-111 2,-116 30,-172 102,-197 23,-10 37,-24 30,-33 -9,-7 -5,-28 9,-44 19,-23 14,-46 -23,-93 -33,-41 -49,-95 -49,-167 0,-90 12,-114 88,-188 49,-46 116,-100 149,-123 30,-21 70,-79 86,-134 23,-77 46,-105 111,-130 72,-30 86,-30 137,2 30,19 56,53 56,72 0,21 -58,102 -130,179 -72,79 -139,167 -151,197 -26,65 -5,220 37,276 28,37 37,37 172,0 230,-65 443,-44 443,40 0,34 -53,46 -318,74 -165,16 -202,60 -134,162 69,107 -5,230 -82,137 -37,-46 -106,-44 -125,2 -7,21 -14,65 -14,103 0,97 -21,132 -107,185 -62,40 -86,44 -127,23 -42,-23 -77,-16 -214,47l-162 76 -40 -53c-37,-49 -46,-51 -116,-25 -62,20 -88,18 -132,-12 -74,-47 -84,-81 -56,-183 19,-70 17,-86 -14,-98 -58,-23 -76,42 -62,204l14 153 -86 14c-135,21 -290,93 -290,133 0,62 -68,134 -137,151 -37,6 -74,30 -81,46 -19,53 -202,174 -260,174 -33,0 -58,19 -68,46 -11,38 -34,47 -106,47 -112,0 -116,28 -12,88 144,86 223,346 139,464 -37,54 -44,54 -313,37l-276 -16 0 158c0,86 -12,197 -26,246 -37,118 5,218 102,250 40,14 91,45 114,65 40,35 53,35 218,-16 197,-62 288,-144 288,-257 0,-54 16,-79 72,-109 128,-70 206,-147 206,-200 0,-81 72,-130 188,-130 56,-2 128,-16 161,-35 113,-65 164,-44 324,125 84,86 195,182 249,207 116,60 169,130 169,220 0,38 9,61 23,52 14,-7 24,-68 24,-130 0,-109 2,-114 48,-91 26,16 54,21 61,14 7,-5 -61,-58 -149,-114 -128,-83 -183,-137 -257,-257 -54,-84 -98,-160 -98,-172 0,-12 21,-39 44,-60 44,-40 51,-35 193,97 79,74 192,176 248,228 58,51 123,141 153,211 63,139 172,285 216,285 42,0 33,-42 -12,-53 -32,-9 -30,-12 7,-14 28,0 58,16 65,37 17,39 -21,77 -72,77 -16,0 -30,20 -30,46 0,58 12,58 107,-2 95,-58 97,-95 21,-188 -65,-77 -65,-128 -2,-116 20,4 44,-10 51,-31 11,-25 48,-34 137,-34 150,0 206,-44 190,-149 -21,-132 139,-418 269,-490 100,-53 188,-18 165,68 -9,39 2,58 49,79 62,30 127,37 127,16 0,-7 -16,-37 -37,-70 -35,-51 -32,-55 23,-93 75,-48 235,-71 256,-37 9,14 -3,58 -24,100l-39 74 167 154c90,83 165,167 165,188 -3,118 -225,150 -453,65 -83,-33 -162,-45 -216,-38 -116,17 -320,93 -371,140 -23,23 -65,39 -95,39 -67,0 -81,49 -58,193 30,174 83,195 450,190l283 -5 -14 96c-28,183 -113,433 -169,491 -44,49 -67,58 -118,45 -35,-12 -130,-17 -214,-17 -118,5 -204,-14 -399,-79 -144,-46 -269,-76 -295,-67 -25,7 -69,58 -100,112 -81,148 -74,148 -540,-96l-256 -134 0 -153c0,-167 -20,-209 -106,-209 -216,-7 -527,44 -799,125 -280,84 -406,98 -406,42 0,-49 -46,-19 -83,51 -21,42 -91,125 -151,183 -100,98 -114,121 -114,207 0,130 -53,234 -162,322 -51,42 -135,140 -188,218 -54,79 -123,175 -158,209 -58,63 -60,79 -74,441 -10,228 -28,406 -47,450 -25,65 -25,79 7,117 91,102 320,464 320,503 0,77 114,218 246,304l123 84 251 -17c153,-7 330,-34 453,-69 280,-77 324,-74 431,32 79,81 93,88 167,72 56,-11 98,-7 135,16 49,33 51,49 51,342l0 308 93 128c53,67 102,151 109,183 7,33 37,100 67,151 35,63 58,149 67,267 14,155 10,195 -55,385 -40,118 -72,246 -72,286 0,39 30,148 69,243 38,95 84,269 105,390 49,269 102,432 234,694 102,207 126,311 75,330 -42,13 2,88 78,129 51,31 93,31 288,5 318,-44 453,-97 562,-225 146,-172 234,-339 271,-511 28,-136 47,-171 123,-241 51,-44 98,-100 105,-121 14,-41 -14,-252 -42,-327 -19,-46 116,-190 292,-308 154,-105 193,-202 179,-451 -7,-109 -23,-220 -37,-248 -14,-25 -44,-128 -63,-227 -35,-170 -35,-188 0,-286 68,-169 253,-424 427,-580 93,-81 204,-206 251,-278 90,-144 262,-499 262,-546 0,-16 21,-69 44,-118l47 -88 -51 11c-28,7 -149,33 -267,54 -251,48 -304,34 -381,-102 -23,-45 -104,-161 -181,-260 -74,-100 -148,-207 -165,-237 -14,-30 -51,-81 -83,-114 -42,-46 -61,-95 -68,-197 -16,-158 -116,-413 -259,-652 -61,-100 -98,-190 -93,-221 9,-65 44,-65 79,3l25 51 33 -51c32,-49 34,-49 102,48 37,54 90,168 118,251 35,98 67,160 98,170 48,18 88,104 106,239 12,85 44,143 198,350 53,72 74,132 92,262 24,184 51,237 123,237 75,0 813,-385 940,-492 65,-56 121,-111 121,-125 2,-14 28,-49 60,-79 33,-30 58,-70 58,-88 0,-21 19,-56 42,-82 37,-44 37,-46 -39,-106 -130,-98 -212,-191 -212,-237 0,-61 -18,-56 -76,16 -49,63 -207,146 -276,149 -21,0 -49,-28 -63,-65 -14,-35 -83,-172 -153,-304 -137,-253 -139,-304 -21,-304 58,0 95,30 202,171 83,109 186,160 316,156 92,-3 116,9 164,67 54,63 77,72 256,93 109,12 253,23 317,23 107,0 135,9 214,81 49,44 125,98 172,116 97,40 125,77 76,96 -48,18 -46,71 5,99 49,26 81,10 121,-65 41,-81 62,-27 81,216 16,214 83,476 141,559 19,26 33,61 33,82 0,46 211,487 234,487 10,0 44,-56 79,-123 44,-93 65,-181 79,-350 9,-123 28,-235 40,-244 11,-12 95,-81 183,-158 90,-76 220,-209 288,-290 109,-137 132,-153 225,-167 55,-7 127,-30 158,-49 55,-37 58,-35 125,63 195,283 190,274 190,415 0,123 5,137 49,137 25,0 79,-23 118,-49 81,-60 100,-44 123,112 7,58 30,146 49,197 19,56 32,183 32,311 0,186 10,234 56,327 33,63 70,153 84,205 53,181 255,399 255,273 0,-102 -81,-313 -160,-408 -218,-276 -237,-341 -156,-536 31,-74 44,-84 119,-84 99,0 174,35 174,82 0,18 32,69 69,111 40,44 70,102 70,130 0,25 9,49 21,49 14,0 90,-58 176,-130l151 -130 -12 -119c-27,-239 -39,-274 -141,-427 -165,-246 -163,-225 -53,-343 102,-112 132,-123 206,-77 37,23 51,23 65,3 19,-31 221,-109 388,-149 95,-23 141,-56 262,-179 79,-81 144,-160 144,-176 0,-16 37,-84 81,-153 90,-146 97,-181 42,-221 -40,-27 -40,-32 2,-79 44,-48 44,-48 -5,-48 -58,0 -69,-65 -16,-84 51,-21 44,-53 -35,-172 -37,-58 -69,-125 -69,-150 0,-58 93,-160 185,-209 40,-21 70,-40 70,-44 0,-5 -44,-3 -97,2 -117,12 -270,-32 -307,-90 -32,-52 70,-163 221,-240 139,-71 176,-44 111,84 -51,102 -37,118 30,33 84,-107 297,-61 267,58 -9,39 5,74 53,132 56,62 70,100 70,181 0,114 14,123 116,69 88,-46 88,-97 0,-313l-70 -169 184 -200c181,-197 185,-199 281,-192 81,7 109,-3 167,-58 99,-93 280,-346 352,-488 123,-243 168,-582 89,-680 -40,-46 -49,-48 -137,-23 -91,28 -102,26 -167,-30 -40,-33 -84,-63 -100,-67 -61,-21 274,-346 536,-523 128,-85 155,-90 355,-62 63,7 144,2 190,-14 68,-21 114,-19 244,14 155,37 251,32 225,-10 -39,-67 288,-306 418,-306 90,0 113,28 74,91 -16,25 -23,53 -14,60 23,26 225,-116 237,-167 14,-49 97,-95 125,-67 23,25 -60,171 -125,215 -35,24 -149,123 -255,221 -105,100 -202,181 -214,181 -44,0 -116,151 -132,278 -14,109 32,446 65,481 14,14 248,-230 236,-246 -18,-35 82,-165 128,-165 35,0 46,-16 46,-60 0,-77 40,-149 82,-149 39,0 44,-25 14,-58 -12,-14 -28,-65 -35,-116 -16,-102 44,-234 120,-257 21,-7 72,-28 110,-47 95,-44 324,-70 345,-35 28,42 100,30 193,-35 186,-125 318,-178 459,-185 114,-5 140,-14 147,-49 7,-60 -79,-190 -144,-213 -58,-24 -95,-86 -61,-107 12,-7 68,0 128,14 118,30 174,4 174,-81 0,-26 9,-63 21,-82 23,-37 72,-14 72,33 0,49 37,60 102,32 49,-23 67,-18 123,23 165,128 313,205 274,142 -26,-42 53,-137 139,-172 105,-44 102,-72 -5,-127 -160,-79 -190,-82 -220,-17 -35,79 -81,77 -100,-7 -39,-181 -364,-338 -835,-406 -128,-18 -265,-41 -302,-48 -72,-17 -72,-17 -63,79 12,113 -9,118 -204,48 -88,-30 -192,-44 -336,-46 -269,0 -309,-12 -346,-105 -39,-92 -100,-106 -402,-88 -194,12 -232,7 -259,-25 -17,-21 -51,-37 -77,-37 -30,0 -56,-26 -72,-68 -35,-93 -83,-100 -234,-30 -142,63 -174,60 -128,-16 16,-26 26,-51 21,-56 -28,-25 -422,-30 -429,-7 -5,14 -14,54 -21,88 -19,86 -158,128 -272,79 -56,-23 -93,-25 -141,-9 -38,14 -93,16 -128,7 -49,-12 -72,-2 -114,51l-51 65 -81 -42c-107,-58 -281,-236 -262,-269 9,-14 37,-25 62,-25 58,0 56,-35 -7,-79 -65,-47 -248,-49 -352,-5 -140,58 -362,58 -420,-2 -47,-44 -279,-51 -358,-10 -44,26 -53,19 -99,-79 -54,-109 -105,-129 -216,-81 -42,19 -42,21 -5,21 53,2 188,72 169,88 -6,7 -25,3 -41,-11 -28,-21 -114,-37 -167,-30 -10,2 4,20 32,44l53 41 -106 42c-109,42 -283,56 -314,26 -9,-10 5,-30 31,-49 169,-121 308,-200 387,-216 114,-25 190,-90 156,-132 -17,-19 -17,-33 2,-44 42,-26 25,-58 -33,-58 -32,0 -65,-12 -74,-26 -9,-18 -72,-21 -199,-9 -144,12 -205,7 -286,-26 -109,-39 -127,-65 -69,-88 67,-25 34,-60 -56,-60 -72,0 -102,14 -151,72l0 0zm-5762 2323c51,60 51,88 -5,88 -25,0 -60,5 -76,12 -42,16 -100,-89 -79,-140 18,-48 102,-27 160,40zm1682 1810c7,56 0,65 -51,65 -53,0 -88,28 -97,81 -3,12 -12,40 -21,60 -9,24 9,65 44,110 35,37 60,88 60,111 0,25 10,58 21,77 19,27 28,27 58,4 30,-25 44,-25 72,-2 51,42 44,56 -39,88l-75 28 49 51c68,77 74,283 9,318 -99,53 -252,14 -304,-79 -23,-42 -20,-77 12,-179 40,-125 40,-130 -9,-195 -56,-79 -142,-308 -142,-387 0,-102 207,-232 348,-218 44,2 61,18 65,67l0 0zm632 95c0,47 -19,95 -45,118 -37,35 -44,35 -71,3 -26,-30 -24,-51 6,-116 52,-107 110,-107 110,-5z"/>
    <path class="fil0" d="M6607 1149c-19,19 2,56 32,56 12,0 21,-16 21,-35 0,-35 -28,-46 -53,-21z"/>
    <path class="fil0" d="M21977 1172c0,21 11,33 27,28 42,-14 49,-65 10,-65 -21,0 -37,16 -37,37l0 0z"/>
    <path class="fil0" d="M4309 1214c-74,26 -171,79 -220,118l-84 68 79 18c75,16 89,10 147,-62 53,-63 78,-79 120,-68 44,12 63,0 93,-58 42,-83 44,-81 -135,-16l0 0z"/>
    <path class="fil0" d="M21387 1175c-25,25 -14,53 21,53 19,0 35,-9 35,-21 0,-30 -37,-51 -56,-32z"/>
    <path class="fil0" d="M22896 1175c-26,25 -14,53 20,53 19,0 35,-9 35,-21 0,-30 -37,-51 -55,-32z"/>
    <path class="fil0" d="M4646 1233c14,41 65,48 65,9 0,-21 -16,-37 -37,-37 -21,0 -33,11 -28,28l0 0z"/>
    <path class="fil0" d="M8111 1226c-17,27 28,55 58,37 25,-16 9,-58 -24,-58 -11,0 -25,9 -34,21l0 0z"/>
    <path class="fil0" d="M16166 1244c-26,26 -14,54 21,54 18,0 34,-10 34,-21 0,-30 -37,-51 -55,-33z"/>
    <path class="fil0" d="M26330 1244c-25,26 -14,54 21,54 19,0 35,-10 35,-21 0,-30 -37,-51 -56,-33z"/>
    <path class="fil0" d="M6115 1274c-16,26 56,58 183,84 93,16 153,63 153,114 0,39 72,81 137,81 26,0 93,16 151,35 84,28 158,32 406,16 167,-12 307,-23 311,-30 5,-5 16,-40 26,-75 14,-60 11,-62 -30,-39 -26,12 -212,26 -413,30 -321,5 -376,0 -432,-37 -35,-21 -63,-56 -63,-74 0,-33 -74,-58 -255,-93 -44,-9 -98,-21 -121,-26 -21,-7 -44,0 -53,14z"/>
    <path class="fil0" d="M19517 1323c-70,26 -188,51 -263,56 -74,4 -199,30 -278,56 -79,25 -174,48 -214,53 -55,5 -67,16 -62,53 2,30 -23,75 -65,116 -79,77 -88,119 -28,135 26,7 16,11 -23,14 -42,2 -86,30 -133,88 -85,104 -88,118 -18,128 28,4 60,30 74,58 23,53 74,76 181,76l68 0 -61 -72c-95,-111 -79,-164 112,-364 146,-156 208,-190 438,-248 255,-65 481,-147 481,-177 0,-32 -68,-23 -209,28l0 0z"/>
    <path class="fil0" d="M22046 1312c0,20 12,32 28,27 42,-14 49,-65 9,-65 -21,0 -37,17 -37,37l0 1z"/>
    <path class="fil0" d="M5078 1370c-12,111 -65,134 -198,81 -292,-112 -415,-105 -357,23 21,46 35,56 53,37 37,-37 140,-35 193,5 42,30 39,32 -26,67l-67 37 70 0c102,2 552,-125 564,-155 4,-17 -17,-28 -51,-28 -42,0 -70,-21 -96,-70 -46,-90 -76,-88 -85,3l0 0z"/>
    <path class="fil0" d="M5493 1312c-19,18 2,55 32,55 12,0 21,-16 21,-35 0,-34 -27,-46 -53,-20z"/>
    <path class="fil0" d="M5690 1318c-44,28 5,107 107,170 60,37 81,42 109,18 109,-90 -93,-266 -216,-188l0 0zm112 61c16,21 23,42 16,49 -23,25 -86,-12 -86,-49 0,-44 32,-44 70,0l0 0z"/>
    <path class="fil0" d="M26595 1332c0,21 11,35 25,31 14,-5 26,-19 26,-31 0,-11 -12,-25 -26,-30 -14,-4 -25,10 -25,30z"/>
    <path class="fil0" d="M25237 1390c-7,12 -5,38 5,56 25,47 88,7 69,-42 -16,-41 -53,-48 -74,-14z"/>
    <path class="fil0" d="M25444 1400c-7,18 -10,58 -5,88 7,56 0,53 216,37 25,-2 79,5 116,16 58,14 65,12 42,-14 -17,-16 -31,-53 -31,-83 0,-61 -7,-63 -65,-28 -32,21 -58,18 -116,-12 -88,-46 -141,-46 -157,-4l0 0z"/>
    <path class="fil0" d="M25852 1409c0,12 16,35 35,51 39,33 134,9 121,-30 -10,-33 -156,-51 -156,-21z"/>
    <path class="fil0" d="M4275 1439c4,14 18,23 30,23 11,0 25,-9 30,-23 5,-14 -9,-25 -30,-25 -21,0 -35,11 -30,25z"/>
    <path class="fil0" d="M5546 1434c0,35 65,77 93,61 19,-12 19,-26 -2,-49 -30,-35 -91,-44 -91,-12z"/>
    <path class="fil0" d="M6038 1434c10,31 42,38 44,10 0,-10 -11,-21 -25,-28 -16,-5 -26,5 -19,18z"/>
    <path class="fil0" d="M12555 1472c0,21 11,34 25,30 14,-5 26,-19 26,-30 0,-12 -12,-26 -26,-31 -14,-4 -25,10 -25,31z"/>
    <path class="fil0" d="M5423 1476c-27,26 -18,54 19,54 18,0 35,-17 35,-35 0,-37 -28,-47 -54,-19z"/>
    <path class="fil0" d="M6180 1476c-47,17 -35,72 16,88 54,17 93,-2 93,-46 0,-23 -58,-65 -77,-56 -2,0 -18,7 -32,14l0 0z"/>
    <path class="fil0" d="M20805 1483c-10,14 -7,37 7,51 14,14 27,14 39,-4 9,-14 7,-37 -7,-51 -14,-14 -28,-14 -39,4z"/>
    <path class="fil0" d="M26189 1479c13,11 65,30 116,39 60,9 83,7 69,-7 -11,-12 -65,-30 -116,-39 -60,-10 -83,-7 -69,7z"/>
    <path class="fil0" d="M12664 1520c-19,19 2,56 32,56 12,0 21,-16 21,-35 0,-35 -28,-46 -53,-21z"/>
    <path class="fil0" d="M15655 1546c-25,25 -14,53 21,53 19,0 35,-9 35,-21 0,-30 -37,-51 -56,-32z"/>
    <path class="fil0" d="M25219 1616c-28,25 -19,53 18,53 19,0 35,-16 35,-35 0,-37 -28,-46 -53,-18z"/>
    <path class="fil0" d="M4026 1639c-79,21 -104,55 -104,146 0,70 -14,100 -63,137 -44,32 -53,46 -28,49 21,0 56,20 79,46 24,26 65,46 93,46 28,0 79,-20 112,-46 32,-26 67,-46 81,-46 11,0 39,-21 65,-49 23,-28 86,-70 137,-95l92 -44 -55 48c-58,51 -49,61 23,24 49,-28 60,-128 16,-156 -16,-9 -93,-25 -169,-35 -77,-7 -160,-21 -186,-25 -25,-7 -67,-7 -93,0l0 0z"/>
    <path class="fil0" d="M25680 1680c-9,33 -9,70 -2,82 19,30 197,30 197,0 0,-14 -16,-24 -35,-24 -20,0 -60,-25 -90,-58l-56 -58 -14 58 0 0z"/>
    <path class="fil0" d="M6354 1685c-95,14 -121,63 -98,174 26,119 65,137 98,42 14,-37 35,-70 49,-70 37,0 164,-118 151,-141 -12,-21 -82,-23 -200,-5z"/>
    <path class="fil0" d="M19853 1690c-16,28 28,55 58,37 26,-16 9,-58 -23,-58 -12,0 -26,9 -35,21l0 0z"/>
    <path class="fil0" d="M5878 1736c-76,30 -93,47 -76,72 39,63 25,74 -63,58l-84 -16 68 58c146,123 216,153 301,125 89,-25 100,-69 42,-151 -23,-34 -30,-74 -21,-120 19,-84 -14,-88 -167,-26l0 0z"/>
    <path class="fil0" d="M5347 1755c-7,25 -44,55 -81,69 -47,19 -68,42 -68,82 0,109 -37,125 -113,46 -91,-91 -168,-116 -198,-67 -18,28 -35,30 -76,9 -42,-19 -63,-16 -100,19 -40,34 -47,37 -58,4 -9,-18 -12,-51 -7,-69 5,-21 0,-38 -12,-40 -25,-2 -157,65 -220,112 -47,37 -49,48 -26,116 14,39 37,76 51,76 17,2 103,5 195,7 102,0 179,14 198,33 48,48 -21,74 -207,74 -172,0 -225,30 -102,58 37,7 100,39 144,72 97,72 181,69 408,-3 223,-71 262,-71 432,-2 72,30 132,47 132,35 0,-9 -9,-26 -23,-33 -42,-25 -23,-78 37,-111l63 -32 -98 -17c-116,-18 -169,-67 -223,-211 -34,-88 -37,-123 -18,-176 16,-44 18,-72 2,-81 -11,-7 -28,7 -32,30l0 0z"/>
    <path class="fil0" d="M20299 1729c-19,19 2,56 32,56 12,0 21,-16 21,-35 0,-35 -28,-46 -53,-21z"/>
    <path class="fil0" d="M7426 1780c0,68 23,75 160,58 107,-11 119,-18 88,-48 -18,-19 -83,-40 -141,-45 -98,-11 -107,-9 -107,35l0 0z"/>
    <path class="fil0" d="M6728 1852c-79,79 -89,95 -70,158 25,91 60,156 102,188 19,16 188,37 402,49 310,18 401,32 573,90 236,79 262,98 227,160 -21,42 -16,47 33,37 46,-9 58,0 83,84 26,86 35,95 105,95 90,0 116,30 65,79 -44,44 -56,44 -112,2 -60,-46 -90,-44 -155,10 -44,37 -51,51 -26,74 51,53 30,67 -102,67 -144,0 -218,30 -218,86 0,30 21,35 128,21 139,-16 259,21 348,102 25,23 76,53 111,67 37,14 60,35 53,47 -7,11 31,25 82,35 51,9 146,41 209,72 120,62 139,55 74,-19 -33,-35 -35,-49 -12,-56 56,-21 93,-76 81,-125 -7,-26 -69,-109 -137,-183 -69,-75 -125,-147 -125,-160 0,-14 26,-42 58,-63 65,-42 58,-44 230,93 70,53 90,60 118,37 19,-16 35,-42 35,-58 0,-16 23,-47 53,-65l52 -37 -58 -47c-33,-25 -72,-48 -89,-48 -18,0 -62,-21 -97,-47 -37,-25 -100,-53 -144,-60 -81,-16 -158,-70 -158,-109 0,-14 16,-42 37,-65 33,-35 30,-44 -32,-88 -37,-26 -123,-61 -188,-75 -65,-14 -119,-30 -119,-39 0,-7 17,-33 40,-56 42,-46 9,-58 -65,-16 -53,28 -207,-19 -207,-63 0,-48 -97,-102 -188,-102 -62,0 -95,14 -118,51 -32,49 -42,51 -116,23 -44,-14 -95,-27 -116,-27 -44,0 -65,-47 -65,-142 0,-58 -9,-67 -65,-67 -137,0 -223,146 -167,290 19,46 19,72 0,90 -39,40 -97,-41 -104,-151 -3,-55 0,-74 4,-39 12,81 54,86 54,5 0,-65 -38,-151 -79,-177 -61,-39 -140,-16 -225,72zm1777 1335c44,18 81,46 81,58 0,34 -11,32 -116,-21 -141,-72 -113,-98 35,-37z"/>
    <path class="fil0" d="M12044 1841c65,39 139,51 105,16 -14,-12 -54,-28 -93,-37l-70 -14 58 35z"/>
    <path class="fil0" d="M29217 2075c0,21 12,35 26,30 13,-4 25,-18 25,-30 0,-12 -12,-26 -25,-30 -14,-5 -26,9 -26,30z"/>
    <path class="fil0" d="M6187 2114c-67,96 -33,181 72,181 67,0 72,75 7,179 -49,81 -88,93 -167,51 -37,-21 -79,-16 -181,14 -195,58 -409,42 -518,-42 -86,-65 -225,-83 -295,-39 -30,21 -30,25 0,46 19,12 49,24 68,24 25,0 25,-7 0,-40 -28,-35 -28,-37 9,-23 23,9 49,16 53,16 33,0 0,70 -37,81 -25,7 -46,21 -48,31 -10,88 -21,150 -31,162 -7,7 -53,-30 -102,-84l-90 -97 -184 0c-222,0 -271,-21 -206,-93 37,-42 39,-53 11,-72 -18,-11 -74,-16 -125,-9 -65,9 -130,-5 -241,-49 -121,-49 -179,-58 -281,-51 -84,7 -165,0 -225,-23l-93 -35 -220 121c-216,116 -300,141 -300,95 0,-12 56,-58 121,-105 135,-90 116,-109 -33,-32 -55,28 -116,42 -146,35 -51,-14 -53,-12 -23,51 51,107 65,237 28,237 -47,0 -84,-49 -100,-135 -14,-65 -28,-74 -209,-130 -225,-72 -355,-102 -566,-132 -84,-12 -211,-33 -283,-44 -72,-14 -160,-19 -193,-10 -32,7 -72,3 -90,-11 -49,-42 -272,-93 -374,-86 -51,2 -116,18 -144,32 -30,17 -53,24 -53,14 0,-9 -19,0 -40,19 -23,21 -78,49 -125,63 -46,13 -114,58 -148,95 -38,39 -82,69 -98,69 -18,0 -69,17 -118,37l-86 38 93 81c51,46 148,109 216,139 127,60 150,104 71,146 -34,21 -71,19 -150,-9 -93,-30 -114,-30 -207,5 -114,41 -130,62 -58,85 26,7 47,28 47,45 0,92 236,127 350,53 67,-44 90,-33 90,49 0,69 -125,190 -195,190 -27,0 -81,30 -116,67 -53,56 -62,81 -51,132 24,86 137,195 207,195 32,0 70,17 86,38 51,60 190,106 285,95 81,-12 86,-10 86,55 0,98 -109,207 -299,297 -160,79 -230,142 -100,93 285,-109 643,-366 715,-517 88,-186 139,-246 209,-246 67,0 67,0 7,102 -51,88 -45,132 20,114 68,-17 121,-70 133,-126 18,-95 106,-118 183,-46 53,49 241,118 320,118 28,0 158,37 293,84 132,44 255,76 274,69 37,-14 78,26 155,149 30,44 93,104 144,132 104,58 153,139 158,267 4,67 18,102 62,135 51,39 54,51 31,90 -26,40 -24,44 2,35 18,-7 56,-2 81,14 40,21 44,32 26,72 -33,58 -12,90 58,90 69,0 318,225 359,325 24,56 24,77 0,105 -23,28 -37,30 -62,9 -17,-16 -40,-21 -49,-12 -9,10 -19,188 -23,397 -10,413 11,543 97,624 30,26 77,100 102,161 58,132 126,220 207,273 30,21 56,47 53,58 -2,12 21,26 51,33 40,9 72,56 123,174 40,90 93,200 123,246 28,46 44,102 37,123 -9,23 14,67 58,121 40,44 96,127 121,185 49,100 149,195 209,195 16,0 2,-30 -33,-65 -34,-35 -62,-74 -62,-83 0,-12 -40,-84 -88,-163 -49,-79 -123,-218 -165,-311 -61,-134 -70,-176 -49,-202 37,-44 109,-7 139,72 26,65 260,423 455,690 102,141 132,199 135,276 7,125 81,188 417,357 216,109 267,125 372,123 104,-5 139,7 290,102 95,60 220,123 281,144 151,51 278,193 278,313 0,37 9,44 54,35 41,-11 60,-2 78,42 21,44 63,70 158,97 123,35 135,35 174,0 98,-88 202,33 225,253 17,163 3,214 -102,365 -155,225 -213,457 -127,506 37,23 34,30 -26,83l-63 56 91 204c49,111 116,276 148,367 161,443 144,415 349,575 104,84 213,177 241,207l53 55 -46 671c-56,822 -56,817 -142,1014 -69,158 -102,374 -93,622 17,441 12,529 -20,569 -31,37 -35,37 -61,0 -16,-21 -39,-33 -53,-23 -42,23 -28,76 21,92 51,17 162,151 162,193 0,16 -21,28 -44,28 -39,0 -46,21 -53,155 -5,88 -19,177 -28,198 -16,34 -7,41 39,41 72,0 209,109 193,153 -26,65 30,31 79,-48 28,-44 58,-81 69,-81 10,0 24,-33 33,-72 7,-40 39,-103 72,-142 32,-37 58,-79 58,-93 0,-11 39,-69 88,-127 60,-77 77,-112 53,-119 -129,-44 -160,-246 -44,-301 47,-21 65,-52 77,-121 9,-58 32,-102 63,-118 41,-24 41,-28 9,-79 -56,-86 -49,-151 18,-151 93,0 130,-26 179,-119 30,-62 65,-92 109,-102 304,-65 353,-93 353,-197 0,-35 -32,-107 -72,-160 -39,-56 -65,-104 -58,-111 7,-10 53,4 104,25 193,88 337,-35 560,-471 88,-172 97,-207 86,-306 -14,-105 -10,-116 67,-181 44,-40 121,-93 167,-116 49,-26 102,-61 118,-79 17,-21 72,-42 126,-51 153,-26 192,-63 271,-272 65,-162 77,-232 88,-455l12 -260 109 -137c151,-188 214,-324 204,-447 -7,-91 -18,-107 -162,-219 -142,-109 -170,-120 -313,-136 -179,-19 -214,-33 -342,-144 -51,-42 -111,-77 -137,-77 -25,0 -85,37 -134,81 -100,88 -130,98 -195,51 -39,-30 -35,-34 49,-76 90,-44 137,-126 72,-126 -19,0 -79,38 -135,82 -56,44 -116,81 -132,81 -42,0 21,-114 123,-221l81 -85 -46 -61c-26,-30 -47,-81 -47,-109 0,-111 -206,-267 -357,-267 -35,0 -91,-14 -126,-32 -74,-40 -336,-307 -376,-381 -23,-49 -41,-53 -157,-49 -137,7 -341,-44 -441,-109 -54,-34 -58,-32 -93,19 -23,28 -44,83 -51,121 -16,90 -63,102 -98,27 -20,-51 -18,-76 12,-141 46,-95 37,-100 -60,-26 -42,33 -102,68 -135,82 -44,16 -74,55 -102,127 -44,112 -79,130 -128,70 -58,-67 -109,-79 -232,-54 -111,24 -123,21 -178,-30 -96,-88 -119,-169 -107,-371 16,-209 16,-209 -242,-239 -141,-16 -146,-19 -146,-84 0,-37 17,-106 35,-150 47,-114 70,-302 37,-321 -42,-25 -206,31 -246,86 -18,28 -35,72 -35,100 0,72 -51,104 -190,116 -155,16 -241,-35 -315,-186 -68,-132 -107,-383 -75,-466 14,-35 23,-107 23,-163 0,-116 35,-160 198,-246 100,-53 102,-53 271,-13 218,51 267,53 228,2 -26,-30 -24,-42 16,-84 42,-41 65,-44 223,-30 216,21 253,51 318,262 44,154 99,237 157,237 40,0 35,-58 -18,-246 -23,-90 -54,-209 -67,-262l-21 -100 171 -195c96,-104 172,-202 172,-211 0,-12 21,-32 49,-49 28,-16 42,-37 35,-44 -7,-9 -3,-28 11,-44 17,-21 17,-56 -4,-121 -28,-92 -14,-213 23,-213 9,0 30,28 46,63l30 65 28 -84c61,-174 165,-276 279,-276 72,0 90,-28 62,-100 -39,-104 47,-193 277,-285 199,-79 301,-98 301,-56 0,12 -11,23 -23,23 -39,0 -139,109 -139,151 0,28 28,16 114,-39 111,-75 227,-147 308,-193 23,-12 42,-30 42,-40 0,-34 -53,-18 -121,40 -79,65 -111,65 -146,-2 -14,-26 -42,-42 -63,-38 -37,7 -181,-120 -181,-160 0,-9 33,-23 70,-32 72,-16 95,-74 35,-95 -49,-19 -181,30 -288,109 -104,74 -141,83 -141,35 0,-40 190,-212 287,-263 40,-21 170,-44 293,-53 218,-16 526,-100 561,-149 26,-34 23,-157 -2,-197 -16,-23 -49,-28 -123,-16 -183,28 -193,25 -193,-9 0,-19 44,-56 100,-82l98 -48 -151 -77c-81,-42 -165,-102 -186,-132 -18,-30 -30,-56 -23,-56 7,0 -16,-44 -56,-100 -37,-55 -79,-144 -93,-197 -16,-53 -34,-97 -41,-97 -10,0 -49,32 -91,72 -42,41 -116,81 -174,92 -97,24 -104,21 -165,-48 -67,-72 -81,-126 -42,-151 59,-35 14,-102 -129,-197 -128,-84 -179,-105 -288,-112 -126,-9 -137,-7 -177,54 -27,41 -44,111 -44,194 -2,72 -11,168 -21,214 -13,65 -7,100 31,162 60,100 60,184 2,300 -28,55 -56,174 -67,295 -24,234 -58,283 -165,227 -35,-19 -98,-72 -139,-118 -70,-79 -75,-96 -65,-219l9 -132 -139 -25c-89,-17 -205,-65 -321,-133 -97,-58 -199,-104 -225,-104 -53,0 -74,-28 -95,-125 -9,-49 -28,-72 -58,-75 -93,-4 -102,-11 -127,-88 -33,-100 -10,-158 132,-329 62,-75 130,-170 148,-207 26,-56 51,-72 128,-81 100,-14 218,-77 218,-116 0,-12 -42,-35 -93,-49 -51,-16 -93,-35 -93,-44 0,-39 198,-60 249,-28 16,9 35,61 44,112 11,74 4,104 -28,136 -39,40 -39,42 2,72 68,49 133,40 188,-30l51 -65 86 42c47,21 95,35 109,26 37,-24 -99,-149 -227,-207 -65,-28 -137,-77 -158,-107 -37,-55 -37,-55 65,-72 104,-14 260,-79 283,-116 7,-11 -4,-46 -25,-81 -26,-37 -35,-83 -26,-125 16,-84 -53,-137 -176,-137 -84,0 -88,5 -75,58 12,42 -2,86 -46,153 -83,123 -130,111 -176,-42 -51,-178 -82,-197 -160,-102 -68,81 -119,81 -119,2 0,-25 -25,-62 -58,-83 -44,-28 -53,-51 -44,-93 9,-37 -2,-69 -46,-111 -72,-75 -163,-77 -209,-10l0 0zm582 2795c-21,20 -65,-14 -48,-42 9,-14 23,-14 39,2 14,14 19,30 9,40zm165 178c19,14 63,70 100,123 58,86 88,107 206,139 151,42 191,75 133,105 -19,11 -42,53 -51,90 -19,79 -49,91 -70,26 -7,-26 -28,-51 -46,-58 -19,-7 -35,-37 -35,-70 0,-53 -37,-83 -107,-83 -39,0 -116,146 -137,267 -9,51 -25,109 -35,127 -30,51 -51,-58 -41,-209 7,-120 11,-130 97,-176l91 -51 -68 -42c-44,-30 -120,-46 -246,-53l-178 -7 132 -91c132,-88 183,-95 255,-37l0 0zm829 88c0,17 -19,35 -40,40 -42,7 -58,-42 -25,-74 23,-24 65,-3 65,34zm-267 126c0,18 -10,35 -21,35 -30,0 -51,-38 -33,-56 26,-26 54,-14 54,21zm160 311c-72,34 -186,97 -251,139 -123,79 -220,93 -104,14 137,-93 394,-218 438,-218 28,0 -7,28 -83,65l0 0z"/>
    <path class="fil0" d="M7032 2101c0,18 11,27 23,20 14,-9 18,-25 11,-37 -21,-32 -34,-25 -34,17z"/>
    <path class="fil0" d="M28809 2121c-42,33 -40,33 27,35 103,0 219,-25 219,-49 0,-34 -198,-23 -246,14l0 0z"/>
    <path class="fil0" d="M3474 2124c-19,18 2,55 33,55 11,0 20,-16 20,-34 0,-35 -27,-47 -53,-21z"/>
    <path class="fil0" d="M13437 2145c0,21 11,34 25,30 14,-5 26,-19 26,-30 0,-12 -12,-26 -26,-31 -14,-4 -25,10 -25,31z"/>
    <path class="fil0" d="M13337 2193c-19,19 2,56 32,56 12,0 21,-16 21,-35 0,-35 -28,-46 -53,-21z"/>
    <path class="fil0" d="M18920 2217c-14,39 54,99 116,102 47,0 54,-54 12,-86 -60,-47 -114,-54 -128,-16z"/>
    <path class="fil0" d="M15588 2219c-28,25 -19,53 18,53 19,0 35,-16 35,-35 0,-37 -28,-46 -53,-18z"/>
    <path class="fil0" d="M5922 2323c-39,40 -35,58 19,112 49,48 49,48 151,2 97,-44 148,-30 67,16 -37,21 -28,75 14,75 21,0 116,-144 116,-177 0,-11 -49,-18 -107,-11 -58,4 -118,-5 -132,-19 -33,-33 -93,-33 -128,2l0 0z"/>
    <path class="fil0" d="M18089 2365c-39,44 -39,46 0,60 49,21 114,-16 123,-69 12,-54 -71,-49 -123,9z"/>
    <path class="fil0" d="M7472 2374c0,21 17,37 38,37 39,0 32,-51 -10,-64 -16,-5 -28,6 -28,27l0 0z"/>
    <path class="fil0" d="M9631 2365c0,12 16,23 35,23 18,0 34,-11 34,-23 0,-14 -16,-23 -34,-23 -19,0 -35,9 -35,23z"/>
    <path class="fil0" d="M3142 2423c-23,19 -32,35 -18,35 14,0 39,-16 55,-35 37,-44 21,-44 -37,0l0 0z"/>
    <path class="fil0" d="M15286 2425c-18,19 2,56 33,56 11,0 21,-16 21,-35 0,-35 -28,-46 -54,-21z"/>
    <path class="fil0" d="M7512 2495c-19,19 2,56 32,56 12,0 21,-17 21,-35 0,-35 -28,-46 -53,-21z"/>
    <path class="fil0" d="M15142 2502c-16,28 28,56 58,37 26,-16 10,-58 -23,-58 -12,0 -25,9 -35,21l0 0z"/>
    <path class="fil0" d="M7737 2562c-37,28 -39,37 -12,56 42,26 96,7 96,-32 0,-52 -35,-61 -84,-24z"/>
    <path class="fil0" d="M8152 2764c5,16 24,30 40,30 16,0 35,-14 42,-30 4,-16 -12,-28 -42,-28 -30,0 -47,12 -40,28z"/>
    <path class="fil0" d="M12541 2799c-91,7 -123,19 -132,51 -12,49 -149,118 -242,121l-65 2 70 26c39,16 95,51 123,79 37,39 76,53 151,53 97,0 311,-77 422,-149l56 -37 -51 -81c-56,-86 -49,-84 -332,-65l0 0z"/>
    <path class="fil0" d="M12137 2829c-19,12 -26,28 -19,35 21,21 158,-12 158,-37 0,-28 -95,-26 -139,2l0 0z"/>
    <path class="fil0" d="M14845 3075c-18,19 3,56 33,56 11,0 21,-16 21,-35 0,-35 -28,-46 -54,-21z"/>
    <path class="fil0" d="M0 3168c2,70 128,123 197,86 33,-19 33,-26 5,-51 -44,-35 -202,-63 -202,-35z"/>
    <path class="fil0" d="M7705 3189c0,18 16,35 34,35 19,0 35,-17 35,-35 0,-19 -16,-35 -35,-35 -18,0 -34,16 -34,35z"/>
    <path class="fil0" d="M7579 3194c-25,25 -14,53 21,53 19,0 35,-9 35,-21 0,-30 -37,-51 -56,-32z"/>
    <path class="fil0" d="M7150 3326c-19,23 -21,37 -2,49 37,23 116,-10 116,-49 0,-42 -79,-42 -114,0z"/>
    <path class="fil0" d="M7435 3328c-16,42 5,105 35,105 28,0 56,-86 37,-116 -21,-35 -58,-28 -72,11z"/>
    <path class="fil0" d="M13476 3333c-5,9 -19,58 -26,109 -20,114 33,107 63,-9 19,-70 -9,-149 -37,-100l0 0z"/>
    <path class="fil0" d="M13931 3563c-21,53 25,88 60,46 30,-37 16,-84 -23,-84 -12,0 -28,17 -37,38z"/>
    <path class="fil0" d="M8424 3583c0,19 12,35 23,35 14,0 23,-16 23,-35 0,-18 -9,-34 -23,-34 -11,0 -23,16 -23,34z"/>
    <path class="fil0" d="M15702 3565c-26,25 -14,53 20,53 19,0 35,-9 35,-21 0,-30 -37,-51 -55,-32z"/>
    <path class="fil0" d="M341 3609c-18,19 2,56 33,56 11,0 21,-17 21,-35 0,-35 -28,-47 -54,-21z"/>
    <path class="fil0" d="M13722 3809c-104,113 -125,162 -107,285 12,93 26,118 93,155 107,63 125,151 49,216 -33,28 -67,72 -74,100 -12,37 -5,49 37,56 86,11 76,74 -19,118 -109,53 -90,72 40,42 55,-14 146,-26 199,-26 130,0 165,-16 204,-95 44,-86 44,-88 -21,-114 -39,-13 -67,-51 -85,-118 -17,-51 -77,-146 -133,-211 -99,-109 -102,-116 -72,-176 17,-35 35,-72 40,-84 7,-9 -23,-12 -63,-2 -88,18 -95,-26 -23,-142 60,-100 28,-102 -65,-4l0 0z"/>
    <path class="fil0" d="M13471 3804c-9,14 -7,37 7,51 14,14 28,14 40,-5 9,-14 7,-37 -7,-51 -14,-14 -28,-14 -40,5z"/>
    <path class="fil0" d="M708 3825c-14,25 21,53 44,32 21,-21 16,-53 -7,-53 -14,0 -28,9 -37,21l0 0z"/>
    <path class="fil0" d="M15885 3825c-14,25 21,53 44,32 21,-21 16,-53 -7,-53 -14,0 -28,9 -37,21l0 0z"/>
    <path class="fil0" d="M1497 3864c-100,51 -137,93 -119,137 12,35 21,33 84,-11 67,-47 130,-135 111,-151 -4,-7 -39,7 -76,25l0 0z"/>
    <path class="fil0" d="M2831 3934c0,39 51,32 65,-9 5,-17 -7,-28 -28,-28 -21,0 -37,16 -37,37l0 0z"/>
    <path class="fil0" d="M13474 3936c-26,26 -14,54 21,54 18,0 34,-10 34,-21 0,-31 -37,-51 -55,-33z"/>
    <path class="fil0" d="M15565 3936c-26,23 -19,100 7,100 34,0 55,-70 30,-95 -12,-12 -28,-14 -37,-5l0 0z"/>
    <path class="fil0" d="M74 4061c5,14 19,24 30,24 12,0 26,-10 31,-24 4,-13 -10,-25 -31,-25 -20,0 -34,12 -30,25z"/>
    <path class="fil0" d="M1323 4094c0,21 11,35 25,30 14,-5 26,-18 26,-30 0,-12 -12,-26 -26,-30 -14,-5 -25,9 -25,30z"/>
    <path class="fil0" d="M7442 4119c-18,19 3,56 33,56 11,0 21,-16 21,-35 0,-34 -28,-46 -54,-21z"/>
    <path class="fil0" d="M1265 4175c-10,14 -7,37 7,51 14,14 28,14 39,-4 9,-14 7,-38 -7,-51 -14,-14 -28,-14 -39,4z"/>
    <path class="fil0" d="M3063 4212c0,72 54,65 65,-9 5,-35 -4,-51 -28,-51 -25,0 -37,21 -37,60l0 0z"/>
    <path class="fil0" d="M27674 4175c-10,14 -7,37 7,51 14,14 28,14 39,-4 9,-14 7,-38 -7,-51 -14,-14 -28,-14 -39,4z"/>
    <path class="fil0" d="M14975 4236c-21,53 26,88 60,46 31,-37 17,-84 -23,-84 -11,0 -28,17 -37,38z"/>
    <path class="fil0" d="M15261 4238c-26,25 -14,53 20,53 19,0 35,-9 35,-21 0,-30 -37,-51 -55,-32z"/>
    <path class="fil0" d="M13383 4261c-9,7 -16,33 -16,56 0,23 -21,48 -49,55 -37,12 -44,28 -35,70 7,30 5,63 -9,70 -30,18 -30,127 0,127 49,0 207,-93 241,-144 45,-62 49,-183 10,-222 -30,-31 -116,-37 -142,-12l0 0z"/>
    <path class="fil0" d="M538 4296c14,42 65,49 65,9 0,-21 -16,-37 -37,-37 -21,0 -32,12 -28,28l0 0z"/>
    <path class="fil0" d="M25806 4335c0,24 -17,82 -37,130 -33,79 -33,100 0,230 20,79 37,239 37,357 0,214 11,249 69,214 28,-16 26,-33 -9,-98 -23,-41 -37,-109 -33,-146 7,-60 17,-69 70,-62l63 7 -49 -112c-35,-79 -53,-176 -60,-339 -7,-123 -21,-225 -30,-225 -12,0 -21,19 -21,44l0 0z"/>
    <path class="fil0" d="M27841 4307c-28,26 -19,54 18,54 19,0 35,-16 35,-35 0,-37 -28,-46 -53,-19z"/>
    <path class="fil0" d="M306 4365c17,45 89,52 89,10 0,-23 -21,-37 -49,-37 -28,0 -44,11 -40,27l0 0z"/>
    <path class="fil0" d="M3063 4384c0,26 16,46 35,46 19,0 35,-20 35,-46 0,-25 -16,-46 -35,-46 -18,0 -35,21 -35,46z"/>
    <path class="fil0" d="M179 4444c-19,19 2,56 32,56 12,0 21,-16 21,-35 0,-35 -28,-46 -53,-21z"/>
    <path class="fil0" d="M7264 4505c0,37 44,88 76,88 10,0 16,-23 12,-51 -7,-58 -88,-91 -88,-37l0 0z"/>
    <path class="fil0" d="M28247 4502c5,14 19,24 30,24 12,0 26,-10 30,-24 5,-14 -9,-25 -30,-25 -21,0 -35,11 -30,25z"/>
    <path class="fil0" d="M3133 4570c2,18 16,65 37,104l32 70 -11 -81c-12,-82 -58,-156 -58,-93z"/>
    <path class="fil0" d="M26820 4762c-7,19 -3,47 9,65 26,44 79,-7 60,-58 -18,-46 -53,-48 -69,-7l0 0z"/>
    <path class="fil0" d="M3551 4825c0,12 20,23 48,23 26,0 77,30 109,70 35,37 72,69 84,69 35,0 -84,-116 -153,-153 -74,-39 -88,-39 -88,-9z"/>
    <path class="fil0" d="M9301 4902c-130,106 -158,157 -109,218 30,35 116,32 248,-7 44,-14 51,-7 51,58 0,79 26,90 70,37 21,-23 40,-28 70,-12 39,21 69,10 69,-28 0,-9 -18,-18 -44,-18 -32,0 -39,-14 -32,-56 16,-74 -65,-153 -156,-153 -79,0 -86,-14 -32,-72 21,-23 25,-44 11,-53 -11,-10 -79,30 -146,86l0 0z"/>
    <path class="fil0" d="M8784 4915c-19,31 81,96 144,96 71,0 67,-56 -5,-89 -72,-32 -121,-34 -139,-7l0 0z"/>
    <path class="fil0" d="M26771 4911c-25,25 -14,53 21,53 18,0 35,-9 35,-21 0,-30 -37,-51 -56,-32z"/>
    <path class="fil0" d="M26664 5045c0,21 12,35 26,31 14,-5 25,-19 25,-31 0,-11 -11,-25 -25,-30 -14,-4 -26,10 -26,30z"/>
    <path class="fil0" d="M26560 5150c-9,14 -7,37 7,51 14,14 28,14 39,-5 10,-14 7,-37 -7,-51 -14,-14 -28,-14 -39,5z"/>
    <path class="fil0" d="M9352 5208c0,18 16,35 35,35 19,0 35,-17 35,-35 0,-19 -16,-35 -35,-35 -19,0 -35,16 -35,35z"/>
    <path class="fil0" d="M26356 5280c-19,18 2,56 32,56 12,0 21,-17 21,-35 0,-35 -28,-47 -53,-21z"/>
    <path class="fil0" d="M26237 5375c-30,32 -11,77 33,77 25,0 46,-14 46,-33 0,-35 -56,-65 -79,-44l0 0z"/>
    <path class="fil0" d="M25704 5419c-7,21 -14,60 -14,91 0,30 -24,69 -61,92 -48,31 -58,51 -44,100 7,35 28,77 47,95 34,35 81,17 81,-32 0,-19 16,-26 46,-19 26,7 70,-9 107,-37 35,-28 77,-49 93,-49 39,0 86,-85 69,-130 -9,-23 -30,-30 -55,-23 -28,10 -75,-9 -133,-55 -99,-79 -118,-84 -136,-33l0 0z"/>
    <path class="fil0" d="M26112 5477c5,14 19,23 30,23 12,0 26,-9 30,-23 5,-14 -9,-25 -30,-25 -21,0 -35,11 -30,25z"/>
    <path class="fil0" d="M26098 5584c-25,25 -14,53 21,53 18,0 35,-9 35,-21 0,-30 -37,-51 -56,-32z"/>
    <path class="fil0" d="M14769 5709c-24,40 30,84 62,51 28,-28 10,-76 -25,-76 -12,0 -28,11 -37,25z"/>
    <path class="fil0" d="M25613 5899c-21,17 -46,79 -58,144 -16,107 -23,116 -81,112 -56,-5 -63,2 -56,69 5,68 -2,75 -58,75 -37,0 -79,23 -109,62 -35,42 -86,70 -167,86 -70,16 -158,58 -211,98 -68,53 -105,67 -146,58 -70,-19 -72,-3 -12,97 25,42 46,111 46,153 0,91 49,149 86,102 14,-16 47,-74 74,-130 38,-72 63,-97 105,-97 30,0 70,-16 86,-37 25,-33 21,-44 -26,-81 -51,-38 -51,-45 -16,-45 26,0 72,31 107,68l65 69 48 -48c35,-37 86,-54 184,-61l134 -9 65 -225c35,-123 72,-246 79,-274 30,-125 -60,-246 -139,-186z"/>
    <path class="fil0" d="M14769 5950c-10,19 -7,54 0,75 14,35 18,35 53,2 37,-39 28,-111 -16,-111 -14,0 -30,16 -37,34l0 0z"/>
    <path class="fil0" d="M14383 5967c-37,11 -65,39 -65,58 0,23 12,30 42,18 21,-9 58,-23 81,-28 42,-11 54,-44 24,-60 -12,-5 -47,0 -82,12z"/>
    <path class="fil0" d="M14168 6099c-17,28 27,56 58,37 25,-16 9,-58 -24,-58 -11,0 -25,9 -34,21l0 0z"/>
    <path class="fil0" d="M15154 6217c-40,24 -37,28 63,79 90,47 90,47 109,0 30,-79 -86,-134 -172,-79z"/>
    <path class="fil0" d="M15727 6231c-19,19 2,56 33,56 11,0 20,-16 20,-35 0,-35 -27,-46 -53,-21z"/>
    <path class="fil0" d="M15029 6326c-26,26 -14,54 20,54 19,0 35,-9 35,-21 0,-30 -37,-51 -55,-33z"/>
    <path class="fil0" d="M16235 6326c-25,26 -14,54 21,54 19,0 35,-9 35,-21 0,-30 -37,-51 -56,-33z"/>
    <path class="fil0" d="M16059 6394c0,39 51,32 65,-10 5,-16 -7,-27 -28,-27 -21,0 -37,16 -37,37l0 0z"/>
    <path class="fil0" d="M15193 6466c-28,25 -18,53 19,53 18,0 35,-16 35,-35 0,-37 -28,-46 -54,-18z"/>
    <path class="fil0" d="M16732 6484c0,49 63,70 104,35 44,-37 24,-70 -48,-70 -35,0 -56,14 -56,35l0 0z"/>
    <path class="fil0" d="M15042 6521c5,14 19,24 31,24 11,0 25,-10 30,-24 4,-14 -9,-25 -30,-25 -21,0 -35,11 -31,25z"/>
    <path class="fil0" d="M16101 6535c16,7 37,5 44,-2 9,-7 -5,-14 -30,-12 -26,0 -33,7 -14,14z"/>
    <path class="fil0" d="M24476 6698c-28,25 -19,53 18,53 19,0 35,-16 35,-35 0,-37 -28,-46 -53,-18z"/>
    <path class="fil0" d="M8656 6786c0,21 12,35 26,30 13,-5 25,-18 25,-30 0,-12 -12,-26 -25,-30 -14,-5 -26,9 -26,30z"/>
    <path class="fil0" d="M12629 6823c5,14 19,23 30,23 12,0 26,-9 30,-23 5,-14 -9,-25 -30,-25 -21,0 -35,11 -30,25z"/>
    <path class="fil0" d="M24604 6823c4,14 18,23 30,23 11,0 25,-9 30,-23 5,-14 -9,-25 -30,-25 -21,0 -35,11 -30,25z"/>
    <path class="fil0" d="M12555 7225c0,20 16,37 37,37 21,0 32,-12 28,-28 -14,-42 -65,-49 -65,-9l0 0z"/>
    <path class="fil0" d="M12868 7238c-9,14 -7,38 7,51 14,14 28,14 39,-4 10,-14 7,-37 -7,-51 -13,-14 -27,-14 -39,4z"/>
    <path class="fil0" d="M24708 7248c-7,18 -5,41 7,48 30,19 56,-34 28,-62 -14,-14 -26,-9 -35,14l0 0z"/>
    <path class="fil0" d="M12694 7296c0,21 12,35 25,31 14,-5 26,-19 26,-31 0,-11 -12,-25 -26,-30 -13,-4 -25,10 -25,30z"/>
    <path class="fil0" d="M7542 7368c0,21 12,33 28,28 42,-14 49,-65 9,-65 -21,0 -37,17 -37,37l0 0z"/>
    <path class="fil0" d="M12555 7368c0,40 51,33 65,-9 4,-16 -7,-28 -28,-28 -21,0 -37,17 -37,37l0 0z"/>
    <path class="fil0" d="M7681 7389c0,21 12,35 26,30 14,-4 25,-18 25,-30 0,-11 -11,-25 -25,-30 -14,-5 -26,9 -26,30z"/>
    <path class="fil0" d="M24541 7426c-9,26 -9,54 0,63 21,21 93,-30 100,-74 11,-56 -82,-47 -100,11z"/>
    <path class="fil0" d="M18519 7505c0,21 11,35 25,30 14,-4 26,-18 26,-30 0,-11 -12,-25 -26,-30 -14,-4 -25,9 -25,30z"/>
    <path class="fil0" d="M7542 7526c0,21 16,37 37,37 40,0 33,-51 -9,-65 -16,-4 -28,7 -28,28l0 0z"/>
    <path class="fil0" d="M7721 7510c-28,25 -19,53 18,53 19,0 35,-16 35,-34 0,-38 -28,-47 -53,-19z"/>
    <path class="fil0" d="M24367 7598c0,19 16,35 35,35 18,0 34,-16 34,-35 0,-18 -16,-35 -34,-35 -19,0 -35,17 -35,35z"/>
    <path class="fil0" d="M7623 7610c-9,14 -7,37 7,51 14,14 28,14 40,-5 9,-14 7,-37 -7,-51 -14,-14 -28,-14 -40,5z"/>
    <path class="fil0" d="M7786 7610c-9,14 -7,37 7,51 14,14 28,14 39,-5 9,-14 7,-37 -7,-51 -14,-14 -28,-14 -39,5z"/>
    <path class="fil0" d="M24239 7610c-9,14 -7,37 7,51 14,14 28,14 40,-5 9,-14 7,-37 -7,-51 -14,-14 -28,-14 -40,5z"/>
    <path class="fil0" d="M23996 7691c-26,79 -14,174 20,174 19,0 49,-132 49,-216 0,-67 -42,-44 -69,42z"/>
    <path class="fil0" d="M7705 7721c0,30 16,40 99,60 47,12 63,7 63,-20 0,-19 -14,-35 -28,-35 -16,0 -53,-7 -81,-14 -30,-9 -53,-5 -53,9l0 0z"/>
    <path class="fil0" d="M7178 7784c-91,39 -95,65 -19,100 33,14 58,41 58,62 0,19 12,35 26,35 16,0 21,-25 14,-70 -14,-62 -12,-67 39,-46 158,60 346,169 355,211 14,54 137,61 204,12 65,-47 24,-86 -227,-209 -248,-121 -346,-142 -450,-95z"/>
    <path class="fil0" d="M7953 7812c-28,25 -19,53 18,53 19,0 35,-16 35,-35 0,-37 -28,-46 -53,-18z"/>
    <path class="fil0" d="M910 7867c4,14 18,24 30,24 11,0 25,-10 30,-24 5,-14 -9,-25 -30,-25 -21,0 -35,11 -30,25z"/>
    <path class="fil0" d="M8081 7867c4,14 18,24 30,24 11,0 25,-10 30,-24 4,-14 -9,-25 -30,-25 -21,0 -35,11 -30,25z"/>
    <path class="fil0" d="M1021 7923c-23,28 -21,37 12,49 44,18 93,-21 72,-58 -24,-35 -49,-33 -84,9z"/>
    <path class="fil0" d="M8011 7962c14,42 65,49 65,10 0,-21 -16,-37 -37,-37 -21,0 -33,11 -28,27l0 0z"/>
    <path class="fil0" d="M1200 7972c-19,18 9,178 32,206 14,14 35,7 61,-18 37,-35 37,-42 0,-81 -21,-24 -40,-56 -40,-70 0,-30 -35,-56 -53,-37l0 0z"/>
    <path class="fil0" d="M23028 8132c-7,21 -7,42 0,49 16,18 109,-35 109,-61 0,-37 -93,-25 -109,12z"/>
    <path class="fil0" d="M8025 8190c-21,23 -33,49 -23,56 18,18 206,14 318,-7l92 -19 -86 -39c-113,-49 -250,-47 -301,9l0 0z"/>
    <path class="fil0" d="M8528 8211c-18,35 7,72 49,72 21,0 33,-17 28,-40 -9,-46 -56,-65 -77,-32l0 0z"/>
    <path class="fil0" d="M7579 8257c-21,30 44,74 88,58 58,-23 45,-79 -18,-79 -33,0 -63,10 -70,21l0 0z"/>
    <path class="fil0" d="M24002 8264c-34,42 -53,251 -27,313 9,28 53,68 97,86 88,37 179,140 179,202 0,26 11,44 23,44 14,0 23,-18 23,-39 0,-30 7,-33 28,-12 16,17 37,28 49,28 11,0 -54,-81 -144,-179 -91,-97 -165,-192 -165,-208 0,-19 21,-63 49,-98 39,-53 44,-74 23,-116 -30,-53 -100,-65 -134,-21l-1 0z"/>
    <path class="fil0" d="M8693 8276c-25,25 -14,53 21,53 19,0 35,-9 35,-21 0,-30 -37,-51 -56,-32z"/>
    <path class="fil0" d="M7008 8341c0,21 12,35 26,30 14,-5 25,-19 25,-30 0,-12 -11,-26 -25,-30 -14,-5 -26,9 -26,30z"/>
    <path class="fil0" d="M8818 8343c0,21 12,33 28,28 42,-14 49,-65 10,-65 -21,0 -38,16 -38,37l0 0z"/>
    <path class="fil0" d="M8972 8345c-26,26 -14,54 21,54 18,0 34,-10 34,-21 0,-30 -37,-51 -55,-33z"/>
    <path class="fil0" d="M11965 8415c-25,26 -14,53 21,53 19,0 35,-9 35,-20 0,-31 -37,-52 -56,-33z"/>
    <path class="fil0" d="M12149 8466c-17,28 27,56 58,37 25,-16 9,-58 -24,-58 -11,0 -25,9 -34,21l0 0z"/>
    <path class="fil0" d="M8958 8501c0,21 16,37 37,37 21,0 32,-12 28,-28 -14,-42 -65,-49 -65,-9l0 0z"/>
    <path class="fil0" d="M26054 8529c-19,18 2,55 32,55 12,0 21,-16 21,-34 0,-35 -28,-47 -53,-21z"/>
    <path class="fil0" d="M27841 8552c-19,18 2,56 32,56 12,0 21,-17 21,-35 0,-35 -28,-47 -53,-21z"/>
    <path class="fil0" d="M12033 8584c-10,14 -7,38 7,51 13,14 27,14 39,-4 9,-14 7,-37 -7,-51 -14,-14 -28,-14 -39,4z"/>
    <path class="fil0" d="M12160 8605c0,14 12,30 23,37 14,7 24,-2 24,-20 0,-21 -10,-38 -24,-38 -11,0 -23,10 -23,21z"/>
    <path class="fil0" d="M8981 8668c-33,81 -30,102 12,102 18,0 34,-14 34,-30 0,-14 7,-51 14,-81 21,-72 -32,-65 -60,9l0 0z"/>
    <path class="fil0" d="M24297 8642c0,19 16,35 35,35 19,0 35,-16 35,-35 0,-18 -16,-34 -35,-34 -19,0 -35,16 -35,34z"/>
    <path class="fil0" d="M25959 8647c-26,26 -14,53 21,53 18,0 35,-9 35,-20 0,-31 -38,-51 -56,-33z"/>
    <path class="fil0" d="M9125 8772c4,14 18,24 30,24 12,0 25,-10 30,-24 5,-14 -9,-25 -30,-25 -21,0 -35,11 -30,25z"/>
    <path class="fil0" d="M23996 8793c0,26 16,47 34,47 19,0 35,-21 35,-47 0,-25 -16,-46 -35,-46 -18,0 -34,21 -34,46z"/>
    <path class="fil0" d="M8391 8786c-25,26 -13,54 21,54 19,0 35,-10 35,-21 0,-30 -37,-51 -56,-33z"/>
    <path class="fil0" d="M21645 8784c-19,19 2,56 32,56 12,0 21,-17 21,-35 0,-35 -28,-47 -53,-21z"/>
    <path class="fil0" d="M8521 8842c5,14 19,23 31,23 11,0 25,-9 30,-23 4,-14 -10,-26 -30,-26 -21,0 -35,12 -31,26z"/>
    <path class="fil0" d="M18449 8854c0,39 51,32 65,-10 5,-16 -7,-28 -28,-28 -21,0 -37,17 -37,38l0 0z"/>
    <path class="fil0" d="M8928 8854c-19,18 2,55 32,55 12,0 21,-16 21,-34 0,-35 -28,-47 -53,-21z"/>
    <path class="fil0" d="M23903 8875c0,20 11,34 25,30 14,-5 26,-19 26,-30 0,-12 -12,-26 -26,-31 -14,-4 -25,10 -25,31z"/>
    <path class="fil0" d="M21645 8923c-19,19 2,56 32,56 12,0 21,-16 21,-35 0,-35 -28,-46 -53,-21z"/>
    <path class="fil0" d="M24105 8923c-19,19 2,56 32,56 12,0 21,-16 21,-35 0,-35 -28,-46 -53,-21z"/>
    <path class="fil0" d="M9041 8949c-25,25 -14,53 21,53 19,0 35,-9 35,-21 0,-30 -37,-51 -56,-32z"/>
    <path class="fil0" d="M8108 9016c7,21 14,42 14,46 0,5 10,10 21,10 12,0 16,-21 9,-47 -7,-25 -23,-46 -34,-46 -14,0 -17,16 -10,37l0 0z"/>
    <path class="fil0" d="M23789 9074c-53,86 -60,114 -30,114 23,0 104,-165 88,-179 -7,-7 -32,23 -58,65l0 0z"/>
    <path class="fil0" d="M24406 9018c-28,26 -18,54 19,54 18,0 35,-16 35,-35 0,-37 -28,-46 -54,-19z"/>
    <path class="fil0" d="M22557 9083c0,21 11,35 25,31 14,-5 26,-19 26,-31 0,-11 -12,-25 -26,-30 -14,-4 -25,9 -25,30z"/>
    <path class="fil0" d="M26701 9158c-25,25 -14,53 21,53 19,0 35,-9 35,-21 0,-30 -37,-51 -56,-32z"/>
    <path class="fil0" d="M28103 9174c0,21 16,37 37,37 21,0 33,-12 28,-28 -14,-42 -65,-49 -65,-9l0 0z"/>
    <path class="fil0" d="M24323 9202c-42,18 -91,30 -109,23 -28,-12 -116,95 -95,118 6,5 32,0 58,-14 67,-37 74,-32 99,44 30,82 72,89 137,24 49,-49 56,-91 33,-181 -17,-58 -19,-58 -123,-14l0 0z"/>
    <path class="fil0" d="M20626 9250c-5,82 2,151 16,165 5,5 37,5 70,-4 67,-17 72,-58 23,-154 -46,-88 -102,-90 -109,-7l0 0z"/>
    <path class="fil0" d="M20027 9243c0,21 16,38 37,38 21,0 33,-12 28,-28 -14,-42 -65,-49 -65,-10l0 0z"/>
    <path class="fil0" d="M26455 9243c0,21 17,38 38,38 39,0 32,-51 -10,-65 -16,-5 -28,7 -28,27l0 0z"/>
    <path class="fil0" d="M26599 9283c5,14 19,23 30,23 12,0 26,-9 31,-23 4,-14 -10,-26 -31,-26 -20,0 -34,12 -30,26z"/>
    <path class="fil0" d="M20027 9387c0,40 51,33 65,-9 5,-16 -7,-28 -28,-28 -21,0 -37,16 -37,37l0 0z"/>
    <path class="fil0" d="M25109 9422c0,88 56,81 65,-9 5,-44 -2,-63 -27,-63 -26,0 -38,23 -38,72l0 0z"/>
    <path class="fil0" d="M21758 9390c-25,25 -13,53 21,53 19,0 35,-9 35,-21 0,-30 -37,-51 -56,-32z"/>
    <path class="fil0" d="M25657 9390c-25,25 -14,53 21,53 19,0 35,-9 35,-21 0,-30 -37,-51 -56,-32z"/>
    <path class="fil0" d="M26223 9406c0,21 17,37 37,37 40,0 33,-51 -9,-65 -16,-5 -28,7 -28,28l0 0z"/>
    <path class="fil0" d="M23508 9571c-81,81 -183,167 -223,185 -41,19 -81,54 -88,77 -9,23 -49,58 -90,77 -65,27 -75,41 -68,113 7,88 89,242 165,311 54,49 281,91 369,67 42,-9 51,-27 51,-102 0,-83 37,-160 156,-322 35,-47 39,-72 21,-135 -14,-39 -38,-74 -51,-74 -65,0 -58,-53 16,-130l76 -79 -67 -70c-37,-37 -79,-69 -93,-69 -14,0 -90,67 -174,151l0 0z"/>
    <path class="fil0" d="M23972 9478c0,21 12,35 26,30 14,-5 25,-19 25,-30 0,-12 -11,-26 -25,-30 -14,-5 -26,9 -26,30z"/>
    <path class="fil0" d="M26098 9459c-25,26 -14,54 21,54 18,0 35,-10 35,-21 0,-30 -37,-51 -56,-33z"/>
    <path class="fil0" d="M20055 9517c14,42 65,49 65,10 0,-21 -16,-38 -37,-38 -21,0 -33,12 -28,28l0 0z"/>
    <path class="fil0" d="M27470 9527c-19,18 2,55 32,55 12,0 21,-16 21,-35 0,-34 -28,-46 -53,-20z"/>
    <path class="fil0" d="M21946 9564c126,160 205,276 235,343 18,44 62,119 97,163 35,44 81,118 102,164 49,107 256,332 293,318 35,-11 120,-229 104,-269 -4,-14 -28,-28 -51,-28 -56,0 -160,-88 -202,-169 -16,-35 -111,-156 -211,-267 -132,-149 -206,-213 -285,-244 -70,-28 -98,-32 -82,-11z"/>
    <path class="fil0" d="M20039 9629c-9,14 -7,37 7,51 14,14 28,14 39,-5 10,-14 7,-37 -7,-51 -14,-14 -28,-14 -39,5z"/>
    <path class="fil0" d="M22916 9673c-16,28 28,56 58,37 26,-16 10,-58 -23,-58 -11,0 -25,9 -35,21l0 0z"/>
    <path class="fil0" d="M14680 9691c-25,26 -13,54 21,54 19,0 35,-10 35,-21 0,-30 -37,-51 -56,-33z"/>
    <path class="fil0" d="M21921 9761c-26,26 -14,53 21,53 18,0 35,-9 35,-21 0,-30 -38,-51 -56,-32z"/>
    <path class="fil0" d="M24613 9761c-26,26 -14,53 21,53 18,0 35,-9 35,-21 0,-30 -38,-51 -56,-32z"/>
    <path class="fil0" d="M14613 9828c-18,19 2,56 33,56 11,0 21,-16 21,-35 0,-35 -28,-46 -54,-21z"/>
    <path class="fil0" d="M6537 9898c-18,18 3,56 33,56 11,0 21,-17 21,-35 0,-35 -28,-47 -54,-21z"/>
    <path class="fil0" d="M22058 9930c-9,14 -7,38 7,51 14,14 28,14 39,-4 9,-14 7,-37 -7,-51 -14,-14 -28,-14 -39,4z"/>
    <path class="fil0" d="M24580 9935c-32,33 -34,109 -7,156 14,23 28,6 49,-56 30,-93 7,-149 -42,-100z"/>
    <path class="fil0" d="M28184 9930c-9,14 -7,38 7,51 14,14 28,14 40,-4 9,-14 7,-37 -7,-51 -14,-14 -28,-14 -40,4z"/>
    <path class="fil0" d="M14504 9988c0,19 16,35 35,35 18,0 35,-16 35,-35 0,-18 -17,-34 -35,-34 -19,0 -35,16 -35,34z"/>
    <path class="fil0" d="M23982 9977c-86,35 -128,297 -86,529 37,193 81,213 65,28 -23,-242 48,-286 111,-70 37,130 86,151 86,35 0,-63 -19,-109 -72,-167 -86,-100 -79,-132 33,-142 120,-9 83,-51 -45,-51 -74,0 -106,-11 -118,-37 -23,-60 56,-102 188,-102 65,0 135,-12 153,-23 44,-28 -246,-30 -315,0l0 0z"/>
    <path class="fil0" d="M24738 10060c0,21 12,33 28,28 42,-14 49,-65 9,-65 -21,0 -37,16 -37,37l0 0z"/>
    <path class="fil0" d="M6389 10084c-16,44 25,90 60,69 37,-23 30,-76 -9,-93 -21,-7 -42,3 -51,24z"/>
    <path class="fil0" d="M6537 10063c-28,25 -18,53 19,53 18,0 35,-16 35,-35 0,-37 -28,-46 -54,-18z"/>
    <path class="fil0" d="M27746 10063c-26,25 -14,53 21,53 18,0 34,-9 34,-21 0,-30 -37,-51 -55,-32z"/>
    <path class="fil0" d="M6665 10121c14,41 65,48 65,9 0,-21 -16,-37 -37,-37 -21,0 -33,11 -28,28l0 0z"/>
    <path class="fil0" d="M24877 10139c0,12 35,40 77,61 100,51 100,48 53,99 -48,54 -28,102 35,84 60,-21 230,60 344,162 99,91 118,149 60,198 -51,41 -42,69 21,69 30,0 100,21 155,47 135,60 193,58 263,-12 78,-79 157,-74 229,12 33,37 63,79 68,92 9,31 204,100 222,82 7,-7 -30,-56 -81,-112 -65,-65 -102,-127 -114,-188 -13,-76 -34,-102 -157,-181 -177,-113 -441,-241 -581,-278 -102,-28 -109,-26 -176,39l-70 68 -58 -56c-32,-30 -58,-77 -58,-107 0,-39 -20,-56 -102,-76 -125,-31 -130,-31 -130,-3l0 0z"/>
    <path class="fil0" d="M28242 10151c0,21 12,35 26,30 14,-5 25,-19 25,-30 0,-12 -11,-26 -25,-30 -14,-5 -26,9 -26,30z"/>
    <path class="fil0" d="M22185 10200c0,39 51,32 65,-10 5,-16 -7,-28 -27,-28 -21,0 -38,17 -38,38l0 0z"/>
    <path class="fil0" d="M24738 10211c0,56 54,49 65,-9 5,-23 -7,-40 -28,-40 -23,0 -37,21 -37,49l0 0z"/>
    <path class="fil0" d="M25207 10188c5,14 18,23 30,23 12,0 26,-9 30,-23 5,-14 -9,-26 -30,-26 -21,0 -35,12 -30,26z"/>
    <path class="fil0" d="M25752 10176c-18,19 3,56 33,56 11,0 21,-16 21,-35 0,-35 -28,-46 -54,-21z"/>
    <path class="fil0" d="M26390 10188c5,14 19,23 31,23 11,0 25,-9 30,-23 4,-14 -9,-26 -30,-26 -21,0 -35,12 -31,26z"/>
    <path class="fil0" d="M14451 10202c-28,25 -19,53 18,53 19,0 35,-16 35,-35 0,-37 -28,-46 -53,-18z"/>
    <path class="fil0" d="M22965 10202c-25,25 -14,53 21,53 19,0 35,-9 35,-21 0,-30 -37,-51 -56,-32z"/>
    <path class="fil0" d="M26124 10200c-19,18 2,55 32,55 12,0 21,-16 21,-35 0,-34 -28,-46 -53,-20z"/>
    <path class="fil0" d="M24302 10258c5,14 18,23 30,23 12,0 26,-9 30,-23 5,-14 -9,-26 -30,-26 -21,0 -35,12 -30,26z"/>
    <path class="fil0" d="M24441 10258c5,14 19,23 30,23 12,0 26,-9 30,-23 5,-14 -9,-26 -30,-26 -21,0 -35,12 -30,26z"/>
    <path class="fil0" d="M28340 10258c4,14 18,23 30,23 12,0 25,-9 30,-23 5,-14 -9,-26 -30,-26 -21,0 -35,12 -30,26z"/>
    <path class="fil0" d="M28474 10290c0,21 12,35 26,30 14,-4 25,-18 25,-30 0,-12 -11,-25 -25,-30 -14,-5 -26,9 -26,30z"/>
    <path class="fil0" d="M22893 10302c-9,14 -7,37 7,51 14,14 28,14 40,-5 9,-14 7,-37 -7,-51 -14,-14 -28,-14 -40,5z"/>
    <path class="fil0" d="M24652 10327c-90,33 -62,70 47,63 53,-5 95,-16 93,-30 -7,-35 -84,-54 -140,-33z"/>
    <path class="fil0" d="M26595 10313c0,33 58,128 83,137 51,19 61,-28 19,-90 -33,-49 -102,-81 -102,-47z"/>
    <path class="fil0" d="M22278 10346c0,11 12,30 23,37 14,7 24,5 24,-9 0,-12 -10,-31 -24,-37 -11,-7 -23,-5 -23,9z"/>
    <path class="fil0" d="M24450 10364c-25,26 -14,54 21,54 19,0 35,-10 35,-21 0,-30 -37,-51 -56,-33z"/>
    <path class="fil0" d="M18626 10434c-26,26 -14,53 20,53 19,0 35,-9 35,-21 0,-30 -37,-51 -55,-32z"/>
    <path class="fil0" d="M26448 10490c-116,72 -125,88 -81,132 35,35 137,-26 191,-114 53,-90 18,-97 -110,-18z"/>
    <path class="fil0" d="M17375 10501c-19,19 2,56 32,56 12,0 21,-16 21,-35 0,-35 -28,-46 -53,-21z"/>
    <path class="fil0" d="M24975 10559c4,14 18,24 30,24 12,0 26,-10 30,-24 5,-14 -9,-25 -30,-25 -21,0 -35,11 -30,25z"/>
    <path class="fil0" d="M26223 10571c0,21 12,32 28,28 42,-14 49,-65 9,-65 -20,0 -37,16 -37,37l0 0z"/>
    <path class="fil0" d="M24262 10578c-16,28 28,56 58,37 26,-16 10,-58 -23,-58 -11,0 -25,9 -35,21l0 0z"/>
    <path class="fil0" d="M25109 10589c0,21 17,38 38,38 20,0 32,-12 27,-28 -14,-42 -65,-49 -65,-10l0 0z"/>
    <path class="fil0" d="M26797 10571c-19,18 2,56 32,56 12,0 21,-17 21,-35 0,-35 -28,-47 -53,-21z"/>
    <path class="fil0" d="M18454 10629c4,14 18,23 30,23 12,0 26,-9 30,-23 5,-14 -9,-26 -30,-26 -21,0 -35,12 -30,26z"/>
    <path class="fil0" d="M17335 10661c0,21 12,35 26,31 14,-5 25,-19 25,-31 0,-11 -11,-25 -25,-30 -14,-4 -26,10 -26,30z"/>
    <path class="fil0" d="M26936 10643c-28,25 -19,53 18,53 19,0 35,-16 35,-35 0,-37 -28,-46 -53,-18z"/>
    <path class="fil0" d="M22770 10675c16,51 119,91 327,128 105,19 221,46 256,60 76,30 104,12 62,-39 -53,-65 -169,-114 -313,-130 -76,-12 -186,-26 -241,-35 -81,-14 -100,-9 -91,16l0 0z"/>
    <path class="fil0" d="M23404 10671c-19,34 7,72 49,72 20,0 32,-17 27,-40 -9,-46 -55,-65 -76,-32l0 0z"/>
    <path class="fil0" d="M23566 10673c-9,14 -7,37 7,51 14,14 28,14 40,-5 9,-14 7,-37 -7,-51 -14,-14 -28,-14 -40,5z"/>
    <path class="fil0" d="M28509 10673c-9,14 -7,37 7,51 14,14 28,14 40,-5 9,-14 7,-37 -7,-51 -14,-14 -28,-14 -40,5z"/>
    <path class="fil0" d="M24065 10733c0,21 12,33 28,28 42,-14 49,-65 9,-65 -21,0 -37,16 -37,37l0 0z"/>
    <path class="fil0" d="M27059 10729c0,35 55,65 79,44 30,-33 11,-77 -33,-77 -25,0 -46,14 -46,33l0 0z"/>
    <path class="fil0" d="M24543 10736c-25,25 -14,53 21,53 19,0 35,-9 35,-21 0,-30 -37,-51 -56,-32z"/>
    <path class="fil0" d="M24808 10801c0,18 21,34 46,34 26,0 47,-16 47,-34 0,-19 -21,-35 -47,-35 -25,0 -46,16 -46,35z"/>
    <path class="fil0" d="M26966 10801c0,21 12,34 26,30 13,-5 25,-19 25,-30 0,-12 -12,-26 -25,-31 -14,-4 -26,10 -26,31z"/>
    <path class="fil0" d="M28672 10787c-17,28 27,55 58,37 25,-16 9,-58 -24,-58 -11,0 -25,9 -34,21l0 0z"/>
    <path class="fil0" d="M17375 10805c-28,26 -19,54 18,54 19,0 35,-17 35,-35 0,-37 -28,-47 -53,-19z"/>
    <path class="fil0" d="M24682 10805c-25,26 -13,54 21,54 19,0 35,-10 35,-21 0,-30 -37,-51 -56,-33z"/>
    <path class="fil0" d="M27235 10810c-7,9 2,39 21,63 23,34 37,37 60,16 14,-14 21,-44 14,-63 -16,-39 -74,-51 -95,-16z"/>
    <path class="fil0" d="M24402 10856c-105,65 -188,160 -160,188 34,35 276,-116 276,-171 0,-63 -35,-68 -116,-17z"/>
    <path class="fil0" d="M23531 10873c0,39 51,32 65,-10 5,-16 -7,-28 -27,-28 -21,0 -38,17 -38,38l0 0z"/>
    <path class="fil0" d="M24204 10870c0,21 12,35 26,30 14,-4 25,-18 25,-30 0,-11 -11,-25 -25,-30 -14,-5 -26,9 -26,30z"/>
    <path class="fil0" d="M23664 10873c-28,27 9,55 79,55 72,0 90,-32 30,-55 -47,-19 -91,-19 -109,0l0 0z"/>
    <path class="fil0" d="M23935 10884c-14,23 26,67 61,67 6,0 25,-9 44,-20 39,-26 11,-72 -44,-72 -24,0 -52,11 -61,25l0 0z"/>
    <path class="fil0" d="M27156 10931c5,14 19,23 30,23 12,0 26,-9 31,-23 4,-14 -10,-26 -31,-26 -20,0 -34,12 -30,26z"/>
    <path class="fil0" d="M23861 11000c5,14 18,23 30,23 12,0 26,-9 30,-23 5,-14 -9,-25 -30,-25 -21,0 -35,11 -30,25z"/>
    <path class="fil0" d="M24065 11035c0,21 12,33 28,28 42,-14 49,-65 9,-65 -21,0 -37,16 -37,37l0 0z"/>
    <path class="fil0" d="M27326 11019c-17,28 28,55 58,37 25,-16 9,-58 -24,-58 -11,0 -25,9 -34,21l0 0z"/>
    <path class="fil0" d="M26595 11102c0,21 11,35 25,30 14,-4 26,-18 26,-30 0,-11 -12,-25 -26,-30 -14,-4 -25,9 -25,30z"/>
    <path class="fil0" d="M27198 11123c0,21 16,37 37,37 21,0 33,-11 28,-28 -14,-41 -65,-48 -65,-9l0 0z"/>
    <path class="fil0" d="M24924 11170c0,18 -19,46 -44,58 -58,32 -140,202 -126,257 12,42 0,47 -90,47 -70,0 -125,-17 -165,-47 -32,-25 -70,-46 -81,-46 -14,0 -33,21 -40,46 -7,26 -23,47 -32,47 -35,0 -121,97 -111,125 7,16 2,44 -7,63 -17,25 -31,23 -68,-12 -48,-44 -48,-44 -48,35 0,116 -98,199 -418,362 -327,165 -362,211 -283,360 28,55 51,116 51,136 0,65 -33,72 -74,17 -63,-82 -52,-5 16,113 74,126 151,418 158,595 2,113 11,143 60,181 74,58 125,55 244,-14 53,-33 153,-68 220,-82 67,-11 165,-53 218,-90 142,-98 434,-153 580,-109 140,42 230,109 283,209 26,46 52,83 58,83 7,0 38,-46 70,-104 70,-126 128,-142 109,-30 -7,41 -21,95 -30,120 -14,37 -9,40 30,19 51,-28 77,-16 77,37 0,26 72,158 176,325 2,5 44,18 93,28 63,14 104,11 151,-12 58,-30 67,-28 125,26l65 58 72 -70c42,-39 97,-72 123,-72 63,0 74,-16 149,-232 34,-95 83,-232 111,-304 44,-123 118,-585 118,-740 0,-56 -16,-75 -83,-107 -79,-37 -288,-288 -288,-346 0,-14 -30,-42 -67,-65 -86,-51 -163,-206 -188,-383 -12,-86 -44,-176 -91,-248 -39,-63 -79,-146 -86,-190 -7,-42 -23,-77 -32,-77 -26,0 -67,123 -105,318 -34,181 -111,355 -157,355 -14,0 -100,-56 -191,-123 -188,-139 -204,-186 -130,-355 28,-60 47,-111 44,-114 -34,-21 -167,-58 -255,-72 -93,-11 -111,-9 -111,24l0 0z"/>
    <path class="fil0" d="M17581 11177c-25,25 -14,53 21,53 19,0 35,-9 35,-21 0,-30 -37,-51 -56,-32z"/>
    <path class="fil0" d="M17676 11244c-18,18 3,56 33,56 11,0 21,-17 21,-35 0,-35 -28,-47 -54,-21z"/>
    <path class="fil0" d="M18087 11311c-25,105 -90,186 -206,253 -147,88 -174,137 -174,318 0,93 -14,181 -35,221 -44,85 -44,183 2,320 44,127 74,146 174,104 91,-37 114,-93 193,-450 35,-153 79,-330 100,-392 37,-119 32,-323 -12,-402 -21,-37 -26,-32 -42,28z"/>
    <path class="fil0" d="M17790 11339c-25,26 -14,53 21,53 19,0 35,-9 35,-20 0,-31 -37,-52 -56,-33z"/>
    <path class="fil0" d="M25318 11369c0,12 12,23 24,23 13,0 23,-11 23,-23 0,-14 -10,-23 -23,-23 -12,0 -24,9 -24,23z"/>
    <path class="fil0" d="M29484 11390c-16,28 2,40 100,60 44,10 74,7 74,-9 0,-28 -16,-37 -98,-58 -34,-7 -67,-5 -76,7l0 0z"/>
    <path class="fil0" d="M27697 11529c-16,28 28,56 58,37 26,-16 9,-58 -23,-58 -12,0 -26,10 -35,21l0 0z"/>
    <path class="fil0" d="M18519 11636c0,21 11,35 25,30 14,-4 26,-18 26,-30 0,-12 -12,-25 -26,-30 -14,-5 -25,9 -25,30z"/>
    <path class="fil0" d="M27743 11648c-9,14 -7,37 7,51 14,14 28,14 40,-5 9,-14 7,-37 -7,-51 -14,-14 -28,-14 -40,5z"/>
    <path class="fil0" d="M28741 11669c-14,25 21,53 44,32 21,-21 17,-53 -7,-53 -14,0 -27,9 -37,21l0 0z"/>
    <path class="fil0" d="M27839 11710c-26,26 -14,54 20,54 19,0 35,-10 35,-21 0,-30 -37,-51 -55,-33z"/>
    <path class="fil0" d="M1717 11778c0,39 51,32 65,-10 5,-16 -7,-27 -28,-27 -20,0 -37,16 -37,37l0 0z"/>
    <path class="fil0" d="M28641 11768c14,42 65,49 65,10 0,-21 -16,-37 -37,-37 -21,0 -32,11 -28,27l0 0z"/>
    <path class="fil0" d="M1826 11824c-18,19 3,56 33,56 11,0 21,-16 21,-35 0,-35 -28,-46 -54,-21z"/>
    <path class="fil0" d="M29256 11986c-18,19 3,56 33,56 12,0 21,-16 21,-35 0,-34 -28,-46 -54,-21z"/>
    <path class="fil0" d="M2762 12079c0,40 51,33 65,-9 4,-16 -7,-28 -28,-28 -21,0 -37,16 -37,37l0 0z"/>
    <path class="fil0" d="M18751 12077c0,21 11,35 25,30 14,-4 26,-18 26,-30 0,-12 -12,-26 -26,-30 -14,-5 -25,9 -25,30z"/>
    <path class="fil0" d="M27569 12075c0,37 98,106 151,106 51,0 42,-62 -16,-102 -65,-46 -135,-48 -135,-4l0 0z"/>
    <path class="fil0" d="M18626 12082c-26,25 -14,53 20,53 19,0 35,-9 35,-21 0,-30 -37,-51 -55,-32z"/>
    <path class="fil0" d="M29161 12082c-25,25 -14,53 21,53 19,0 35,-9 35,-21 0,-30 -37,-51 -56,-32z"/>
    <path class="fil0" d="M2430 12126c-19,18 2,55 32,55 12,0 21,-16 21,-34 0,-35 -28,-47 -53,-21z"/>
    <path class="fil0" d="M2970 12286c0,21 12,35 26,30 14,-5 25,-19 25,-30 0,-12 -11,-26 -25,-30 -14,-5 -26,9 -26,30z"/>
    <path class="fil0" d="M3446 12390c-9,14 -7,37 7,51 14,14 28,14 40,-4 9,-14 7,-37 -7,-51 -14,-14 -28,-14 -40,4z"/>
    <path class="fil0" d="M3750 12453c-25,25 -14,53 21,53 19,0 35,-9 35,-21 0,-30 -37,-51 -56,-32z"/>
    <path class="fil0" d="M5398 12592c-26,26 -14,54 21,54 18,0 35,-10 35,-21 0,-30 -38,-51 -56,-33z"/>
    <path class="fil0" d="M4989 12680c0,21 12,35 26,31 14,-5 25,-19 25,-31 0,-11 -11,-25 -25,-30 -14,-4 -26,9 -26,30z"/>
    <path class="fil0" d="M7472 13423c0,19 17,35 35,35 19,0 35,-16 35,-35 0,-19 -16,-35 -35,-35 -18,0 -35,16 -35,35z"/>
    <path class="fil0" d="M28266 13537c0,7 32,69 69,137 79,139 86,197 35,292 -30,63 -30,67 23,91 40,18 58,46 58,85 0,86 63,72 93,-23 14,-44 46,-95 70,-111 23,-16 51,-58 58,-93 14,-53 9,-63 -33,-63 -25,0 -58,-21 -72,-46 -21,-37 -35,-42 -69,-23 -38,18 -49,9 -91,-79 -44,-91 -141,-207 -141,-167z"/>
    <path class="fil0" d="M25277 13623c4,13 18,23 30,23 11,0 25,-10 30,-23 5,-14 -9,-26 -30,-26 -21,0 -35,12 -30,26z"/>
    <path class="fil0" d="M26182 14063c4,14 18,24 30,24 11,0 25,-10 30,-24 5,-13 -9,-25 -30,-25 -21,0 -35,12 -30,25z"/>
    <path class="fil0" d="M25892 14075c-19,19 2,56 32,56 12,0 21,-16 21,-35 0,-35 -28,-46 -53,-21z"/>
    <path class="fil0" d="M26001 14258c39,154 58,177 134,170 61,-5 77,-21 100,-88 39,-109 9,-140 -132,-140 -112,0 -116,3 -102,58l0 0z"/>
    <path class="fil0" d="M28219 14251c-25,31 -97,112 -160,181 -60,70 -151,179 -197,242l-88 116 113 28c156,41 186,25 225,-109 21,-65 63,-149 96,-186 32,-39 58,-81 58,-93 0,-11 23,-53 51,-90 39,-56 44,-75 18,-105 -39,-46 -63,-44 -116,16l0 0z"/>
    <path class="fil0" d="M7844 14351c0,40 11,58 30,51 14,-4 28,-28 28,-51 0,-23 -14,-46 -28,-53 -19,-5 -30,14 -30,53z"/>
    <path class="fil0" d="M27871 14929c0,21 16,37 37,37 21,0 33,-11 28,-28 -14,-41 -65,-48 -65,-9l0 0z"/>
    <path class="fil0" d="M7779 14969c4,13 18,23 30,23 12,0 26,-10 30,-23 5,-14 -9,-26 -30,-26 -21,0 -35,12 -30,26z"/>
    <path class="fil0" d="M19691 15059c-21,35 32,116 76,116 44,0 98,-42 98,-77 0,-9 -10,-13 -21,-6 -9,6 -40,-3 -63,-21 -53,-40 -72,-42 -90,-12l0 0z"/>
    <path class="fil0" d="M7774 15140c0,19 16,35 35,35 19,0 35,-16 35,-35 0,-18 -16,-35 -35,-35 -19,0 -35,17 -35,35z"/>
    <path class="fil0" d="M27676 15215c-25,25 -14,53 21,53 19,0 35,-9 35,-21 0,-30 -37,-51 -56,-32z"/>
    <path class="fil0" d="M7788 15284c-25,26 -14,54 21,54 19,0 35,-10 35,-21 0,-31 -37,-51 -56,-33z"/>
    <path class="fil0" d="M9164 15342c0,5 -4,23 -9,42 -5,18 -14,51 -23,72 -14,39 23,83 42,51 27,-49 41,-169 18,-169 -14,0 -25,2 -28,4z"/>
    <path class="fil0" d="M8997 15375c-35,34 -16,104 26,97 21,-5 39,-28 39,-51 0,-46 -37,-72 -65,-46z"/>
    <path class="fil0" d="M7881 15521c-7,9 7,37 32,60 26,23 47,56 47,74 0,17 11,31 25,31 24,0 10,-121 -18,-170 -14,-23 -72,-21 -86,5l0 0z"/>
    <path class="fil0" d="M20067 15560c-19,19 2,56 32,56 12,0 21,-16 21,-35 0,-35 -28,-46 -53,-21z"/>
    <path class="fil0" d="M8280 15644c-5,65 -18,79 -70,83 -92,12 -78,47 24,63 46,9 113,26 148,39 74,28 135,12 135,-37 0,-32 -179,-222 -211,-222 -10,0 -21,34 -26,74z"/>
    <path class="fil0" d="M10914 15744c72,65 84,67 132,34 30,-20 28,-27 -9,-58 -26,-18 -79,-34 -116,-34l-72 2 65 56 0 0z"/>
    <path class="fil0" d="M8670 15748c-26,26 -14,54 21,54 18,0 35,-10 35,-21 0,-30 -37,-51 -56,-33z"/>
    <path class="fil0" d="M8250 15894c-9,17 -7,38 7,52 32,32 104,4 93,-35 -14,-37 -79,-49 -100,-17z"/>
   </g>
  </g>
 </g>
</svg>
