<?xml version="1.0" encoding="UTF-8"?>
<!DOCTYPE svg PUBLIC "-//W3C//DTD SVG 1.1//EN" "http://www.w3.org/Graphics/SVG/1.1/DTD/svg11.dtd">
<!-- Creator: CorelDRAW X8 -->
<svg xmlns="http://www.w3.org/2000/svg" xml:space="preserve" width="210mm" height="209.973mm" version="1.1" style="shape-rendering:geometricPrecision; text-rendering:geometricPrecision; image-rendering:optimizeQuality; fill-rule:evenodd; clip-rule:evenodd"
viewBox="0 0 21000 20997"
 xmlns:xlink="http://www.w3.org/1999/xlink">
 <defs>
  <style type="text/css">
   <![CDATA[
    .fil0 {fill:#E0E0E0}
   ]]>
  </style>
 </defs>
 <g id="Capa_x0020_1">
  <metadata id="CorelCorpID_0Corel-Layer"/>
  <g id="_2494594534208">
   <g>
    <circle class="fil0" cx="843" cy="471" r="378"/>
    <circle class="fil0" cx="3602" cy="471" r="378"/>
    <circle class="fil0" cx="6361" cy="471" r="378"/>
    <circle class="fil0" cx="9120" cy="471" r="378"/>
    <circle class="fil0" cx="11880" cy="471" r="378"/>
    <circle class="fil0" cx="14639" cy="471" r="378"/>
    <circle class="fil0" cx="17398" cy="471" r="378"/>
    <circle class="fil0" cx="20157" cy="471" r="378"/>
   </g>
   <g>
    <circle class="fil0" cx="843" cy="3336" r="378"/>
    <circle class="fil0" cx="3602" cy="3336" r="378"/>
    <circle class="fil0" cx="6361" cy="3336" r="378"/>
    <circle class="fil0" cx="9120" cy="3336" r="378"/>
    <circle class="fil0" cx="11880" cy="3336" r="378"/>
    <circle class="fil0" cx="14639" cy="3336" r="378"/>
    <circle class="fil0" cx="17398" cy="3336" r="378"/>
    <circle class="fil0" cx="20157" cy="3336" r="378"/>
   </g>
   <g>
    <circle class="fil0" cx="843" cy="6201" r="378"/>
    <circle class="fil0" cx="3602" cy="6201" r="378"/>
    <circle class="fil0" cx="6361" cy="6201" r="378"/>
    <circle class="fil0" cx="9120" cy="6201" r="378"/>
    <circle class="fil0" cx="11880" cy="6201" r="378"/>
    <circle class="fil0" cx="14639" cy="6201" r="378"/>
    <circle class="fil0" cx="17398" cy="6201" r="378"/>
    <circle class="fil0" cx="20157" cy="6201" r="378"/>
   </g>
   <g>
    <circle class="fil0" cx="843" cy="9066" r="378"/>
    <circle class="fil0" cx="3602" cy="9066" r="378"/>
    <circle class="fil0" cx="6361" cy="9066" r="378"/>
    <circle class="fil0" cx="9120" cy="9066" r="378"/>
    <circle class="fil0" cx="11880" cy="9066" r="378"/>
    <circle class="fil0" cx="14639" cy="9066" r="378"/>
    <circle class="fil0" cx="17398" cy="9066" r="378"/>
    <circle class="fil0" cx="20157" cy="9066" r="378"/>
   </g>
   <g>
    <circle class="fil0" cx="843" cy="11931" r="378"/>
    <circle class="fil0" cx="3602" cy="11931" r="378"/>
    <circle class="fil0" cx="6361" cy="11931" r="378"/>
    <circle class="fil0" cx="9120" cy="11931" r="378"/>
    <circle class="fil0" cx="11880" cy="11931" r="378"/>
    <circle class="fil0" cx="14639" cy="11931" r="378"/>
    <circle class="fil0" cx="17398" cy="11931" r="378"/>
    <circle class="fil0" cx="20157" cy="11931" r="378"/>
   </g>
   <g>
    <circle class="fil0" cx="843" cy="14796" r="378"/>
    <circle class="fil0" cx="3602" cy="14796" r="378"/>
    <circle class="fil0" cx="6361" cy="14796" r="378"/>
    <circle class="fil0" cx="9120" cy="14796" r="378"/>
    <circle class="fil0" cx="11880" cy="14796" r="378"/>
    <circle class="fil0" cx="14639" cy="14796" r="378"/>
    <circle class="fil0" cx="17398" cy="14796" r="378"/>
    <circle class="fil0" cx="20157" cy="14796" r="378"/>
   </g>
   <g>
    <circle class="fil0" cx="843" cy="17662" r="378"/>
    <circle class="fil0" cx="3602" cy="17662" r="378"/>
    <circle class="fil0" cx="6361" cy="17662" r="378"/>
    <circle class="fil0" cx="9120" cy="17662" r="378"/>
    <circle class="fil0" cx="11880" cy="17662" r="378"/>
    <circle class="fil0" cx="14639" cy="17662" r="378"/>
    <circle class="fil0" cx="17398" cy="17662" r="378"/>
    <circle class="fil0" cx="20157" cy="17662" r="378"/>
   </g>
   <g>
    <circle class="fil0" cx="843" cy="20527" r="378"/>
    <circle class="fil0" cx="3602" cy="20527" r="378"/>
    <circle class="fil0" cx="6361" cy="20527" r="378"/>
    <circle class="fil0" cx="9120" cy="20527" r="378"/>
    <circle class="fil0" cx="11880" cy="20527" r="378"/>
    <circle class="fil0" cx="14639" cy="20527" r="378"/>
    <circle class="fil0" cx="17398" cy="20527" r="378"/>
    <circle class="fil0" cx="20157" cy="20527" r="378"/>
   </g>
  </g>
 </g>
</svg>
