<?xml version="1.0" encoding="UTF-8"?>
<!DOCTYPE svg PUBLIC "-//W3C//DTD SVG 1.1//EN" "http://www.w3.org/Graphics/SVG/1.1/DTD/svg11.dtd">
<!-- Creator: CorelDRAW X8 -->
<svg xmlns="http://www.w3.org/2000/svg" xml:space="preserve" width="127mm" height="169.333mm" version="1.1" style="shape-rendering:geometricPrecision; text-rendering:geometricPrecision; image-rendering:optimizeQuality; fill-rule:evenodd; clip-rule:evenodd"
viewBox="0 0 12700 16933"
 xmlns:xlink="http://www.w3.org/1999/xlink">
 <defs>
  <style type="text/css">
   <![CDATA[
    .fil0 {fill:#172126}
    .fil2 {fill:#E4E4E4;fill-opacity:0.101961}
    .fil1 {fill:#FF005E;fill-opacity:0.101961}
    .fil4 {fill:#E4E4E4;fill-rule:nonzero;fill-opacity:0.101961}
    .fil3 {fill:#FF005E;fill-rule:nonzero;fill-opacity:0.101961}
   ]]>
  </style>
 </defs>
 <g id="Capa_x0020_1">
  <metadata id="CorelCorpID_0Corel-Layer"/>
  <rect class="fil0" width="12700" height="16933"/>
  <g id="_2090068980096">
   <g>
    <path class="fil1" d="M10043 6131c-5,-7 1,-8 -30,-31 -14,-10 -37,-23 -60,-35l-1331 -677c-275,-130 -339,-198 -554,-189 -355,495 270,699 701,912 197,97 414,178 610,282 364,193 114,601 103,607 -184,25 -574,-201 -727,-283 -139,-74 -266,-102 -366,16 -66,79 -141,266 -86,409 32,85 1768,1055 2109,1387 83,81 169,209 235,262 161,-58 299,-442 344,-676 115,-591 -29,-541 -136,-769 -133,-282 68,-571 -164,-805 -107,-108 -459,-350 -648,-410z"/>
    <path class="fil1" d="M8235 7738l-620 -353c-277,-148 -460,-294 -641,40 -167,308 89,433 288,561 180,116 447,273 658,358 17,37 44,43 100,73 446,238 1391,743 1737,1015 83,65 143,153 246,183 188,-47 448,-473 234,-664 -297,-268 -1704,-1126 -2002,-1213z"/>
    <path class="fil1" d="M7690 11661c-90,-126 -668,-346 -840,-419 -204,-86 -815,-431 -847,-49 -17,212 616,395 791,458 139,50 326,139 448,173 128,35 370,-39 448,-163z"/>
    <path class="fil1" d="M10689 5637c-19,-102 -375,-305 -458,-313 -64,157 14,346 73,494 11,8 42,47 69,74 120,116 340,206 531,461 54,71 78,193 134,252 -37,-124 -64,-354 -106,-525 -42,-169 -85,-365 -243,-443z"/>
    <path class="fil1" d="M5546 10643c44,23 57,30 97,52 357,196 477,1 511,-139 47,-194 -192,-248 -350,-346 -296,-151 -596,-347 -869,-520 -328,-208 -788,-645 -980,-553 -110,52 -242,300 21,521 501,419 1085,644 1570,985z"/>
    <path class="fil1" d="M6507 11969c2,25 9,-38 -19,15 -34,64 -33,-40 -6,32 140,-3 503,-22 590,-79 -129,-78 -316,-126 -473,-171 -182,-52 -392,-152 -463,72 75,69 228,98 371,131z"/>
    <path class="fil2" d="M6156 5035c-70,46 -120,151 -118,239 5,217 537,535 609,537 58,97 586,398 656,408 249,34 442,-372 140,-594l-645 -395c-256,-163 -524,-455 -642,-195z"/>
    <path class="fil2" d="M3507 10945l68 -36c73,12 449,253 567,318 205,114 488,287 732,333 28,5 74,-4 101,-30l46 -57c161,37 328,105 493,167 165,61 416,184 431,-78 -27,-89 -799,-374 -988,-507 -808,-399 -461,-375 -511,-625 -28,-140 -453,-379 -606,-487 -473,-335 -879,-705 -1257,-1146 -141,-164 -310,-384 -441,-597 -132,-215 -301,-612 -395,-643 -280,237 210,1022 319,1185 55,82 119,157 181,241 61,83 129,147 189,231 78,110 345,344 224,564 -266,-80 -521,-655 -687,-712 -23,191 34,189 73,328 -60,65 -65,-48 -51,89 15,41 101,177 140,225 67,86 213,217 348,390 213,272 472,611 766,832 222,167 1166,773 1444,754 -97,-198 -1085,-566 -1186,-739z"/>
    <path class="fil2" d="M4720 8018c-44,-33 -90,-65 -123,-94 -215,-190 -502,-433 -694,-644l-166 -179c-95,-94 -214,-239 -333,-402 -212,-290 -462,-692 -573,-1040 -61,-192 -111,-467 -115,-607 -2,-60 2,-117 4,-175l-6 -120c-2,-7 -5,-15 -6,-21 -2,-6 -4,-14 -7,-21 -115,-22 -246,138 -298,223 -194,318 -11,698 -82,961 -35,132 -125,279 -251,310 -122,-245 -29,-594 -44,-893 -197,78 -288,562 -286,977 0,277 66,543 153,804 137,415 504,958 720,1224 194,239 335,394 525,590 62,63 206,221 347,105 206,-171 69,-457 -74,-624l-132 -165c-6,-6 -209,-217 -230,-309 -34,-149 30,-265 161,-341 91,-12 327,301 417,398 157,170 956,792 1075,815 242,47 371,-211 361,-433 -14,-24 -26,-44 -37,-62 -47,-73 -228,-219 -306,-277z"/>
    <path class="fil2" d="M6165 11972c-353,-60 -797,-249 -832,-162 6,62 6,65 191,115 251,67 502,103 768,83l-127 -36z"/>
    <path class="fil2" d="M9905 4672c56,63 174,126 270,130 0,-189 -208,-468 -434,-549 -75,-73 -929,-429 -1062,-429l-1853 -761c41,289 231,358 477,477 107,51 225,100 301,168 71,64 155,210 119,303 -199,102 -686,-435 -871,-322 -150,291 126,444 302,544 153,86 447,265 617,318 86,88 1358,662 1631,804 130,68 446,278 580,216 55,-117 -2,-311 -62,-410 -69,-114 -197,-164 -325,-225 -303,-143 -409,-208 -505,-575 264,-11 633,301 815,311z"/>
    <path class="fil2" d="M7063 10339c71,271 -506,278 182,612 551,267 444,171 951,487 164,103 439,-137 512,-272 -48,-96 -120,-101 -168,-198 60,-131 159,-225 263,-282 180,-98 217,-3 325,66l81 230c137,-62 212,-144 309,-251 75,-83 223,-167 93,-336 -220,-287 -1242,-786 -1648,-1031 -361,-217 -701,-469 -919,-316 -72,51 -182,223 -256,272 -275,181 -938,-722 -1264,-423 -319,291 -77,465 158,619 202,132 1354,717 1381,823z"/>
   </g>
   <g>
    <path class="fil3" d="M3784 12558l0 70 -578 0 0 534 505 0 0 69 -505 0 0 608 -82 0 0 -1281 660 0zm166 785c0,-102 20,-192 61,-268 41,-77 97,-136 170,-177 72,-42 155,-62 247,-62 105,0 193,25 266,76 73,51 124,116 153,195l0 -259 83 0 0 991 -83 0 0 -261c-29,80 -80,146 -154,198 -73,52 -162,77 -265,77 -92,0 -175,-21 -247,-63 -73,-42 -129,-101 -170,-178 -41,-78 -61,-167 -61,-269zm897 0c0,-87 -18,-163 -53,-229 -36,-66 -85,-118 -147,-153 -62,-36 -132,-54 -208,-54 -80,0 -151,17 -212,52 -60,34 -108,85 -142,150 -34,66 -51,144 -51,234 0,90 17,167 51,233 34,66 82,116 143,152 62,35 132,52 211,52 76,0 146,-18 209,-53 62,-36 111,-87 147,-154 35,-66 52,-143 52,-230zm464 -234c30,-80 82,-146 155,-197 73,-51 161,-76 264,-76 93,0 175,20 247,62 73,41 129,100 170,177 41,76 61,166 61,268 0,102 -20,191 -61,269 -41,77 -97,136 -170,178 -72,42 -154,63 -247,63 -103,0 -192,-25 -265,-76 -74,-51 -125,-117 -154,-197l0 259 -82 0 0 -1350 82 0 0 620zm813 234c0,-90 -17,-168 -51,-234 -34,-65 -82,-116 -143,-150 -62,-35 -132,-52 -213,-52 -76,0 -146,18 -208,54 -62,35 -110,87 -145,153 -36,66 -53,142 -53,229 0,87 17,164 53,230 35,67 83,118 145,154 62,35 132,53 208,53 81,0 151,-17 213,-52 61,-36 109,-86 143,-152 34,-66 51,-143 51,-233z"/>
    <path class="fil4" d="M6446 13327c0,-104 23,-197 70,-279 47,-83 111,-147 192,-193 82,-46 173,-69 274,-69 118,0 221,31 310,91 89,61 151,145 186,252l-243 0c-25,-51 -59,-89 -103,-114 -43,-25 -94,-38 -152,-38 -61,0 -116,15 -164,43 -48,29 -85,70 -112,122 -27,53 -40,114 -40,185 0,70 13,131 40,184 27,53 64,94 112,123 48,28 103,43 164,43 58,0 109,-13 152,-39 44,-26 78,-64 103,-114l243 0c-35,108 -97,192 -185,252 -88,60 -192,90 -311,90 -101,0 -192,-23 -274,-69 -81,-46 -145,-110 -192,-191 -47,-82 -70,-175 -70,-279zm1587 544c-81,0 -154,-18 -218,-54 -65,-36 -116,-87 -153,-152 -36,-66 -55,-142 -55,-227 0,-86 19,-162 57,-228 38,-65 90,-116 155,-152 66,-36 139,-54 220,-54 81,0 154,18 219,54 66,36 118,87 156,152 38,66 56,142 56,228 0,85 -19,161 -58,227 -39,65 -91,116 -157,152 -66,36 -140,54 -222,54zm0 -185c38,0 74,-9 108,-28 34,-19 61,-47 81,-84 20,-38 30,-83 30,-136 0,-80 -21,-142 -62,-184 -42,-43 -94,-65 -154,-65 -61,0 -111,22 -152,65 -41,42 -62,104 -62,184 0,79 20,141 60,184 40,42 90,64 151,64zm1543 -886l-388 1057 -257 0 -388 -1057 227 0 291 840 289 -840 226 0z"/>
   </g>
  </g>
 </g>
</svg>
