<?xml version="1.0" encoding="UTF-8"?>
<!DOCTYPE svg PUBLIC "-//W3C//DTD SVG 1.1//EN" "http://www.w3.org/Graphics/SVG/1.1/DTD/svg11.dtd">
<!-- Creator: CorelDRAW X8 -->
<svg xmlns="http://www.w3.org/2000/svg" xml:space="preserve" width="169.333mm" height="169.333mm" version="1.1" style="shape-rendering:geometricPrecision; text-rendering:geometricPrecision; image-rendering:optimizeQuality; fill-rule:evenodd; clip-rule:evenodd"
viewBox="0 0 16933 16933"
 xmlns:xlink="http://www.w3.org/1999/xlink">
 <defs>
  <style type="text/css">
   <![CDATA[
    .fil7 {fill:none}
    .fil6 {fill:#172126}
    .fil1 {fill:#3F4B59}
    .fil5 {fill:#8F0A51}
    .fil3 {fill:#E4E4E4}
    .fil0 {fill:#E4E4E4}
    .fil4 {fill:#FEFEFE}
    .fil2 {fill:#FF005E}
   ]]>
  </style>
   <clipPath id="id0">
    <path d="M16933 8069l0 8864 -10509 0c-370,-866 -575,-1819 -575,-2821 0,-3970 3218,-7189 7189,-7189 1436,0 2773,421 3895,1146z"/>
   </clipPath>
 </defs>
 <g id="Capa_x0020_1">
  <metadata id="CorelCorpID_0Corel-Layer"/>
  <rect class="fil0" width="16933" height="16933"/>
  <path class="fil1" d="M16933 8069l0 8864 -10509 0c-370,-866 -575,-1819 -575,-2821 0,-3970 3218,-7189 7189,-7189 1436,0 2773,421 3895,1146z"/>
  <g style="clip-path:url(#id0)">
   <g id="_3077429330400">
    <g>
     <path id="1" class="fil2" d="M13643 12639l-164 54c29,103 119,276 122,376 6,207 -161,230 -389,375 -266,169 -273,233 -525,14 -53,70 -52,74 -124,121 53,65 196,194 61,375 -40,53 -70,85 -115,141 -355,437 -272,743 -629,706 -2,97 -17,105 -49,169 249,103 129,326 103,805 -9,166 -80,244 -244,269 -146,22 -333,40 -486,52l14 174c463,-38 703,-171 796,185 117,455 265,511 -105,727 27,41 53,83 67,155 396,-164 333,-89 552,178 349,425 486,368 39,893 90,30 84,52 136,96 118,-92 213,-348 391,-367 134,-14 399,170 543,229 151,61 446,124 529,221 112,133 6,491 -14,669l169 18c43,-198 24,-554 177,-645 82,-49 588,-58 753,-89 218,-40 478,-189 625,-16 72,85 206,440 273,571 48,-28 77,-60 161,-64 -225,-549 -418,-658 -67,-890 117,-77 334,-257 406,-273 195,-43 327,164 436,240 42,-42 65,-67 107,-116 -66,-105 -348,-230 -252,-472 15,-38 207,-309 291,-479 41,-83 81,-174 117,-268 162,-428 58,-488 657,-393 -10,-92 0,-110 27,-178 -689,-20 -441,-264 -547,-881 -38,-224 -102,-364 -154,-559 -66,-248 137,-329 301,-398 -44,-50 -73,-70 -76,-156 -153,69 -320,219 -486,47l-313 -383c-85,-96 -301,-220 -219,-435 33,-88 223,-323 285,-411l-137 -93c-4,3 -9,4 -11,11l-137 181c-41,57 -98,147 -142,189 -173,168 -375,-23 -709,-148 -77,-29 -178,-51 -247,-82 -224,-102 -130,-279 -124,-518 -90,5 -98,-3 -169,-28 -42,616 -245,415 -769,481 -594,76 -519,177 -735,-380z"/>
     <path class="fil3" d="M14115 14286c520,-91 642,689 149,780 -539,100 -666,-690 -149,-780zm-21 -75c-601,110 -458,1043 178,931 604,-106 446,-1045 -178,-931z"/>
     <path class="fil4" d="M14650 17386c192,-89 251,169 134,231 -76,40 -167,10 -195,-58 -37,-91 6,-147 61,-173zm261 186c104,-261 -321,-414 -400,-138 -79,277 301,389 400,138z"/>
     <g>
      <path class="fil5" d="M16686 12933l137 93c429,56 493,-389 268,-532 -129,-82 -312,-49 -392,41 -112,126 -73,262 -13,398z"/>
      <path class="fil5" d="M17192 17992c-42,49 -65,74 -107,116 -79,420 312,490 459,308 76,-95 82,-253 5,-355 -86,-113 -205,-106 -357,-69z"/>
      <path class="fil5" d="M14321 19274l-169 -18c-111,41 -198,115 -194,256 4,123 97,228 216,243 271,33 413,-306 147,-481z"/>
      <path class="fil5" d="M11218 16270l-14 -174c-55,-65 -131,-154 -283,-110 -103,29 -167,128 -154,248 24,230 323,285 451,36z"/>
      <path class="fil5" d="M11976 17337c-14,-72 -40,-114 -67,-155 -93,-33 -180,-82 -285,1 -68,54 -109,165 -59,270 83,176 397,173 411,-116z"/>
      <path class="fil5" d="M13479 12693l164 -54c37,-78 101,-158 31,-281 -38,-67 -143,-126 -260,-86 -188,64 -216,376 65,421z"/>
      <path class="fil5" d="M11831 14970c32,-64 47,-72 49,-169 -35,-73 -45,-119 -148,-132 -86,-11 -158,41 -183,97 -83,187 96,296 282,204z"/>
      <path class="fil5" d="M15147 12538c71,25 79,33 169,28 149,-90 160,-281 2,-333 -94,-31 -177,12 -208,68 -54,96 1,177 37,237z"/>
      <path class="fil5" d="M12563 13579c72,-47 71,-51 124,-121 9,-216 -178,-301 -297,-177 -45,48 -67,129 -26,204 42,77 93,86 199,94z"/>
      <path class="fil5" d="M16149 19095c-21,70 -41,145 6,212 35,49 117,89 198,61 158,-52 168,-287 -43,-337 -84,4 -113,36 -161,64z"/>
      <path class="fil5" d="M18032 16202c-27,68 -37,86 -27,178 166,226 321,51 336,-23 20,-94 -34,-164 -88,-192 -92,-49 -161,-3 -221,37z"/>
      <path class="fil5" d="M12703 18504c-52,-44 -46,-66 -136,-96 -222,12 -257,226 -128,315 147,101 294,-16 264,-219z"/>
      <path class="fil5" d="M17556 14208c3,86 32,106 76,156 167,33 280,-77 201,-212 -73,-124 -231,-98 -277,56z"/>
     </g>
     <path class="fil1" d="M14115 14286c-517,90 -390,880 149,780 493,-91 371,-871 -149,-780z"/>
     <path class="fil1" d="M14650 17386c-55,26 -98,82 -61,173 28,68 119,98 195,58 117,-62 58,-320 -134,-231z"/>
     <g>
      <path class="fil6" d="M15951 14235c-214,114 -58,392 140,312 212,-86 68,-423 -140,-312z"/>
      <path class="fil6" d="M13456 16346c89,-141 -137,-259 -208,-136 -92,162 129,261 208,136z"/>
      <path class="fil6" d="M16579 16509c219,-267 -262,-359 -159,-27 50,24 80,34 159,27z"/>
      <path class="fil6" d="M14309 13664c171,57 159,-102 104,-141 -72,-51 -181,20 -104,141z"/>
      <path class="fil6" d="M15213 16053c0,-133 -164,-115 -172,-16 -9,111 172,120 172,16z"/>
     </g>
    </g>
   </g>
  </g>
  <path class="fil7" d="M16933 8069l0 8864 -10509 0c-370,-866 -575,-1819 -575,-2821 0,-3970 3218,-7189 7189,-7189 1436,0 2773,421 3895,1146z"/>
  <path class="fil6" d="M0 0l13360 0c34,428 53,860 53,1297 0,7919 -5818,14478 -13413,15636l0 -16933z"/>
 </g>
</svg>
